<svg width="30" height="30" viewBox="0 0 30 30" fill="none" xmlns="http://www.w3.org/2000/svg">
<path d="M26.0889 0.971313H3.84986C2.10251 0.971313 0.672852 2.40097 0.672852 4.14832V26.3874C0.672852 28.1347 2.10251 29.5644 3.84986 29.5644H26.0889C27.8363 29.5644 29.2659 28.1347 29.2659 26.3874V4.14832C29.2659 2.40097 27.8363 0.971313 26.0889 0.971313ZM12.9202 22.0825C12.3007 22.7021 11.2999 22.7021 10.6804 22.0825L4.9777 16.3798C4.35818 15.7603 4.35818 14.7595 4.9777 14.14C5.59722 13.5205 6.59797 13.5205 7.21749 14.14L11.7924 18.7149L22.7213 7.786C23.3408 7.16648 24.3416 7.16648 24.9611 7.786C25.5806 8.40551 25.5806 9.40627 24.9611 10.0258L12.9202 22.0825V22.0825Z" fill="#BC1920"/>
</svg>
