<svg width="14" height="14" viewBox="0 0 14 14" fill="none" xmlns="http://www.w3.org/2000/svg">
<path d="M11.9115 0.908203H1.99479C1.21563 0.908203 0.578125 1.5457 0.578125 2.32487V12.2415C0.578125 13.0207 1.21563 13.6582 1.99479 13.6582H11.9115C12.6906 13.6582 13.3281 13.0207 13.3281 12.2415V2.32487C13.3281 1.5457 12.6906 0.908203 11.9115 0.908203ZM6.03938 10.322C5.76313 10.5982 5.31688 10.5982 5.04063 10.322L2.49771 7.77904C2.22146 7.50279 2.22146 7.05654 2.49771 6.78029C2.77396 6.50404 3.22021 6.50404 3.49646 6.78029L5.53646 8.82029L10.4098 3.94695C10.686 3.6707 11.1323 3.6707 11.4085 3.94695C11.6848 4.2232 11.6848 4.66945 11.4085 4.9457L6.03938 10.322Z" fill="#848484"/>
</svg>
