<svg width="14" height="14" viewBox="0 0 14 14" fill="none" xmlns="http://www.w3.org/2000/svg">
<path d="M11.2031 12.2415H2.70312C2.31354 12.2415 1.99479 11.9228 1.99479 11.5332V3.0332C1.99479 2.64362 2.31354 2.32487 2.70312 2.32487H11.2031C11.5927 2.32487 11.9115 2.64362 11.9115 3.0332V11.5332C11.9115 11.9228 11.5927 12.2415 11.2031 12.2415ZM11.9115 0.908203H1.99479C1.21563 0.908203 0.578125 1.5457 0.578125 2.32487V12.2415C0.578125 13.0207 1.21563 13.6582 1.99479 13.6582H11.9115C12.6906 13.6582 13.3281 13.0207 13.3281 12.2415V2.32487C13.3281 1.5457 12.6906 0.908203 11.9115 0.908203Z" fill="#848484"/>
</svg>
