<svg width="21" height="21" viewBox="0 0 21 21" fill="none" xmlns="http://www.w3.org/2000/svg">
<path d="M12.4271 7.24761L10.5371 9.13761L8.64711 7.24761C8.25711 6.85761 7.62711 6.85761 7.23711 7.24761C6.84711 7.63761 6.84711 8.26761 7.23711 8.65761L9.12711 10.5476L7.23711 12.4376C6.84711 12.8276 6.84711 13.4576 7.23711 13.8476C7.62711 14.2376 8.25711 14.2376 8.64711 13.8476L10.5371 11.9576L12.4271 13.8476C12.8171 14.2376 13.4471 14.2376 13.8371 13.8476C14.2271 13.4576 14.2271 12.8276 13.8371 12.4376L11.9471 10.5476L13.8371 8.65761C14.2271 8.26761 14.2271 7.63761 13.8371 7.24761C13.4471 6.86761 12.8071 6.86761 12.4271 7.24761ZM10.5371 0.547607C5.00711 0.547607 0.537109 5.01761 0.537109 10.5476C0.537109 16.0776 5.00711 20.5476 10.5371 20.5476C16.0671 20.5476 20.5371 16.0776 20.5371 10.5476C20.5371 5.01761 16.0671 0.547607 10.5371 0.547607ZM10.5371 18.5476C6.12711 18.5476 2.53711 14.9576 2.53711 10.5476C2.53711 6.13761 6.12711 2.54761 10.5371 2.54761C14.9471 2.54761 18.5371 6.13761 18.5371 10.5476C18.5371 14.9576 14.9471 18.5476 10.5371 18.5476Z" fill="#2B2B2B"/>
</svg>
