<svg width="34" height="34" viewBox="0 0 34 34" fill="none" xmlns="http://www.w3.org/2000/svg">
<path d="M17.0007 31.5833C13.1329 31.5833 9.42358 30.0468 6.68868 27.3119C3.95377 24.577 2.41732 20.8677 2.41732 16.9999C2.41732 13.1322 3.95377 9.42285 6.68868 6.68794C9.42358 3.95304 13.1329 2.41659 17.0007 2.41659C20.8684 2.41659 24.5777 3.95304 27.3126 6.68794C30.0475 9.42285 31.584 13.1322 31.584 16.9999C31.584 20.8677 30.0475 24.577 27.3126 27.3119C24.5777 30.0468 20.8684 31.5833 17.0007 31.5833ZM17.0007 33.6666C21.4209 33.6666 25.6602 31.9106 28.7858 28.785C31.9114 25.6594 33.6673 21.4202 33.6673 16.9999C33.6673 12.5796 31.9114 8.34041 28.7858 5.21481C25.6602 2.0892 21.4209 0.333252 17.0007 0.333252C12.5804 0.333252 8.34114 2.0892 5.21554 5.21481C2.08993 8.34041 0.333984 12.5796 0.333984 16.9999C0.333984 21.4202 2.08993 25.6594 5.21554 28.785C8.34114 31.9106 12.5804 33.6666 17.0007 33.6666Z" fill="#2B2B2B"/>
<path d="M9.26104 26.2353C9.50029 26.3734 9.78461 26.4109 10.0515 26.3394C10.3183 26.2679 10.5458 26.0933 10.684 25.854C11.3238 24.745 12.2445 23.8241 13.3534 23.1841C14.4623 22.544 15.7203 22.2075 17.0006 22.2082C19.6985 22.2082 22.0548 23.6728 23.3173 25.854C23.4564 26.0913 23.6837 26.264 23.9497 26.3343C24.2156 26.4046 24.4985 26.3669 24.7368 26.2293C24.975 26.0918 25.1491 25.8656 25.2212 25.6002C25.2933 25.3347 25.2574 25.0515 25.1215 24.8124C24.2988 23.3866 23.1151 22.2028 21.6895 21.3799C20.2639 20.557 18.6467 20.1241 17.0006 20.1249C15.3547 20.1246 13.7376 20.5576 12.3121 21.3804C10.8865 22.2033 9.70277 23.3869 8.87979 24.8124C8.74166 25.0516 8.70423 25.3359 8.77573 25.6028C8.84723 25.8696 9.0218 26.0972 9.26104 26.2353ZM14.9173 13.8749C14.9173 15.5999 13.984 16.9999 12.834 16.9999C11.684 16.9999 10.7506 15.5999 10.7506 13.8749C10.7506 12.1499 11.684 10.7499 12.834 10.7499C13.984 10.7499 14.9173 12.1499 14.9173 13.8749ZM23.2506 13.8749C23.2506 15.5999 22.3173 16.9999 21.1673 16.9999C20.0173 16.9999 19.084 15.5999 19.084 13.8749C19.084 12.1499 20.0173 10.7499 21.1673 10.7499C22.3173 10.7499 23.2506 12.1499 23.2506 13.8749Z" fill="#2B2B2B"/>
</svg>
