<svg width="19" height="19" viewBox="0 0 19 19" fill="none" xmlns="http://www.w3.org/2000/svg">
<g id="Reemplazar Icono" clip-path="url(#clip0_2727_2317)">
<path id="Vector" d="M9.28067 3.28973C5.58909 3.28973 2.43647 5.5859 1.15918 8.82712C2.43647 12.0683 5.58909 14.3645 9.28067 14.3645C12.9723 14.3645 16.1249 12.0683 17.4022 8.82712C16.1249 5.5859 12.9723 3.28973 9.28067 3.28973ZM9.28067 12.5187C7.24292 12.5187 5.58909 10.8649 5.58909 8.82712C5.58909 6.78936 7.24292 5.13553 9.28067 5.13553C11.3184 5.13553 12.9723 6.78936 12.9723 8.82712C12.9723 10.8649 11.3184 12.5187 9.28067 12.5187ZM9.28067 6.61216C8.05507 6.61216 7.06572 7.60151 7.06572 8.82712C7.06572 10.0527 8.05507 11.0421 9.28067 11.0421C10.5063 11.0421 11.4956 10.0527 11.4956 8.82712C11.4956 7.60151 10.5063 6.61216 9.28067 6.61216Z" fill="#2B2B2B"/>
</g>
<defs>
<clipPath id="clip0_2727_2317">
<rect width="17.7196" height="17.7196" fill="white" transform="translate(0.420898 0.336426)"/>
</clipPath>
</defs>
</svg>
