<svg width="18" height="19" viewBox="0 0 18 19" fill="none" xmlns="http://www.w3.org/2000/svg">
<path fill-rule="evenodd" clip-rule="evenodd" d="M0.10498 4.34005C0.10498 3.39853 0.478811 2.49557 1.14423 1.82981C1.80965 1.16406 2.71216 0.790039 3.65321 0.790039H14.2979C15.2389 0.790039 16.1414 1.16406 16.8069 1.82981C17.4723 2.49557 17.8461 3.39853 17.8461 4.34005V14.9901C17.8461 15.9316 17.4723 16.8346 16.8069 17.5003C16.1414 18.1661 15.2389 18.5401 14.2979 18.5401H3.65321C2.71216 18.5401 1.80965 18.1661 1.14423 17.5003C0.478811 16.8346 0.10498 15.9316 0.10498 14.9901V4.34005ZM3.65321 2.56504C3.18268 2.56504 2.73143 2.75205 2.39872 3.08493C2.06601 3.41781 1.87909 3.86929 1.87909 4.34005V14.9901C1.87909 15.4608 2.06601 15.9123 2.39872 16.2452C2.73143 16.5781 3.18268 16.7651 3.65321 16.7651H8.97555V10.5526H8.08849C7.85323 10.5526 7.6276 10.4591 7.46125 10.2926C7.29489 10.1262 7.20144 9.90044 7.20144 9.66506C7.20144 9.42968 7.29489 9.20394 7.46125 9.0375C7.6276 8.87106 7.85323 8.77756 8.08849 8.77756H8.97555V7.44631C8.97555 6.62248 9.30265 5.83239 9.8849 5.24985C10.4671 4.66731 11.2568 4.34005 12.0802 4.34005H12.6125C12.8477 4.34005 13.0734 4.43355 13.2397 4.59999C13.4061 4.76643 13.4995 4.99217 13.4995 5.22755C13.4995 5.46293 13.4061 5.68867 13.2397 5.85511C13.0734 6.02155 12.8477 6.11505 12.6125 6.11505H12.0802C11.9055 6.11505 11.7325 6.14949 11.5711 6.21639C11.4096 6.28329 11.2629 6.38135 11.1394 6.50497C11.0158 6.62859 10.9178 6.77534 10.8509 6.93686C10.7841 7.09837 10.7497 7.27148 10.7497 7.44631V8.77756H12.6125C12.8477 8.77756 13.0734 8.87106 13.2397 9.0375C13.4061 9.20394 13.4995 9.42968 13.4995 9.66506C13.4995 9.90044 13.4061 10.1262 13.2397 10.2926C13.0734 10.4591 12.8477 10.5526 12.6125 10.5526H10.7497V16.7651H14.2979C14.7684 16.7651 15.2197 16.5781 15.5524 16.2452C15.8851 15.9123 16.072 15.4608 16.072 14.9901V4.34005C16.072 3.86929 15.8851 3.41781 15.5524 3.08493C15.2197 2.75205 14.7684 2.56504 14.2979 2.56504H3.65321Z" fill="#9A9A9A"/>
</svg>
