<svg width="77" height="28" viewBox="0 0 77 28" fill="none" xmlns="http://www.w3.org/2000/svg">
<path d="M55.5169 10.6651H52.7843V20.0014C52.7843 20.1561 52.6296 20.3108 52.4749 20.3108H50.3611C50.2064 20.3108 50.0517 20.1561 50.0517 20.0014V10.6651H47.3191C47.216 10.6651 47.1644 10.6135 47.1129 10.5619C47.0613 10.5103 47.0098 10.4072 47.0098 10.3556V8.70498C47.0098 8.60182 47.0613 8.55023 47.1129 8.49865C47.1644 8.44706 47.2675 8.39551 47.3191 8.39551H55.5169C55.6716 8.39551 55.8262 8.49866 55.8778 8.70498V10.3556C55.8262 10.5103 55.6716 10.6651 55.5169 10.6651Z" fill="#848484"/>
<path d="M64.2818 20.2072C63.1991 20.3619 62.1164 20.4135 61.0337 20.4135C58.9714 20.4135 57.1152 19.8977 57.1152 16.9575V11.6446C57.1152 8.70446 58.9714 8.24023 61.0337 8.24023C62.1164 8.24023 63.1991 8.29183 64.2303 8.44657C64.4365 8.49815 64.5396 8.54972 64.5396 8.75605V10.2519C64.5396 10.4067 64.385 10.5614 64.2303 10.5614H60.879C60.1056 10.5614 59.8478 10.8193 59.8478 11.6446V13.0889H64.1272C64.2819 13.0889 64.4365 13.2436 64.4365 13.3984V14.9458C64.4365 15.1006 64.2819 15.2553 64.1272 15.2553H59.8478V16.9575C59.8478 17.7828 60.1056 18.0407 60.879 18.0407H64.2818C64.4365 18.0407 64.5912 18.1955 64.5912 18.3502V19.8461C64.5912 20.104 64.4881 20.2072 64.2818 20.2072Z" fill="#848484"/>
<path d="M76.3463 20.3106H73.8199C73.6652 20.3106 73.459 20.2075 73.4074 20.0527L71.1904 16.5452L69.1796 19.9496C69.0765 20.1559 68.9734 20.2591 68.7672 20.2591H66.3955C66.3439 20.2591 66.2924 20.2591 66.2408 20.2075C66.1893 20.1559 66.1893 20.1043 66.1893 20.0527C66.1893 20.0012 66.1893 19.9496 66.2408 19.9496L69.6952 14.1724L66.1893 8.65323C66.1893 8.60165 66.1377 8.60161 66.1377 8.55003C66.1377 8.44686 66.2408 8.34375 66.3955 8.34375H68.9734C69.1281 8.34375 69.2828 8.49848 69.3859 8.65323L71.4482 11.9028L73.459 8.65323C73.5105 8.49848 73.6652 8.39533 73.8714 8.34375H76.2431C76.3463 8.34375 76.5009 8.44686 76.5009 8.55003C76.5009 8.60161 76.5009 8.60165 76.4494 8.65323L72.9434 14.1724L76.5525 19.898C76.604 19.9495 76.6041 20.0012 76.6041 20.0527C76.5525 20.2075 76.4494 20.3106 76.3463 20.3106Z" fill="#848484"/>
<path d="M43.1425 8.39453C43.0394 8.39453 42.9363 8.49771 42.8847 8.60087L40.5646 17.215C40.513 17.3697 40.4615 17.4729 40.3583 17.4729C40.2552 17.4729 40.1521 17.4213 40.1521 17.215L37.832 8.60087C37.832 8.49771 37.6773 8.39453 37.5742 8.39453H35.3056C35.2541 8.39453 35.151 8.44609 35.0994 8.49767C35.0479 8.54925 35.0479 8.65243 35.0479 8.70401C35.0479 8.70401 37.8836 18.5561 37.9351 18.7108C38.296 19.8972 39.2241 20.4646 40.4099 20.4646C41.5442 20.5162 42.5238 19.7941 42.8847 18.7108C42.9363 18.5561 45.7204 8.70401 45.7204 8.70401C45.7204 8.65243 45.7204 8.54925 45.6689 8.49767C45.6173 8.44609 45.5657 8.39453 45.4626 8.39453H43.1425Z" fill="#848484"/>
<path d="M30.2018 0.400391H6.33025C5.45376 0.400391 4.6804 0.864587 4.21638 1.58673C3.75235 2.30887 3.75235 3.23738 4.16481 4.0111L6.5365 8.55024H2.20561C1.63847 8.55024 1.12288 8.80816 0.865088 9.27239C0.607297 9.73663 0.555735 10.3556 0.813527 10.8198L8.49571 25.3659C8.7535 25.8817 9.32064 26.1912 9.88779 26.1912C10.4549 26.1912 11.0221 25.8817 11.2799 25.3659L13.3422 21.4456L15.9717 26.3975C16.3841 27.2228 17.2091 27.687 18.1371 27.687C19.0652 27.687 19.8901 27.1712 20.3026 26.3975L32.2641 3.85633C32.6766 3.13419 32.625 2.20573 32.2125 1.48359C31.8 0.761449 31.0267 0.400391 30.2018 0.400391ZM19.5292 9.94298L14.2702 19.795C14.1156 20.1561 13.7547 20.3624 13.3422 20.3624C12.9813 20.3624 12.6204 20.1561 12.4142 19.795L7.25833 10.0461C7.10365 9.73663 7.10365 9.37559 7.25833 9.11769C7.413 8.8082 7.72234 8.65344 8.08325 8.65344H18.6527C18.962 8.65344 19.2714 8.80815 19.4261 9.06605C19.6323 9.32396 19.6839 9.63349 19.5292 9.94298Z" fill="#848484"/>
</svg>
