<svg width="72" height="32" viewBox="0 0 72 32" fill="none" xmlns="http://www.w3.org/2000/svg">
<g clip-path="url(#clip0_8410_4254)">
<path d="M49.0711 28.9734V8.12441C48.2981 8.20837 47.6039 8.28603 46.8661 8.36789V6.35499C48.8846 6.07163 50.9155 5.78407 52.9962 5.49232V7.51362C52.4988 7.58918 52.0056 7.70042 51.5082 7.72771C51.1186 7.7487 51.0378 7.91032 51.0399 8.27134C51.0544 10.4123 51.0461 12.5553 51.0461 14.6963C51.0461 18.466 51.0461 22.2378 51.0461 26.0075C51.0461 26.2048 51.0461 26.4021 51.0461 26.6582C52.2584 26.4882 53.4128 26.3308 54.5692 26.1671C58.573 25.5961 62.5748 25.0252 66.5786 24.4543C67.3288 24.3473 68.0811 24.2528 68.8272 24.1143C68.9557 24.0912 69.0676 23.8855 69.1546 23.7449C69.1961 23.6798 69.1629 23.5665 69.1629 23.4741C69.1629 17.5991 69.1629 11.722 69.1629 5.84704V5.22155C64.3446 5.90581 59.5823 6.58168 54.708 7.27433V2.7175C37.2958 5.19637 20.0059 7.65635 2.71181 10.1184V29.3218C17.0921 27.2543 31.4351 25.1931 45.8112 23.1278V25.1575C30.7782 27.3173 15.7596 29.475 0.660145 31.6432V30.9695C0.660145 23.6483 0.66429 16.3271 0.651855 9.00388C0.651855 8.53581 0.749258 8.3532 1.25285 8.28393C5.49088 7.70462 9.72477 7.08333 13.9607 6.47883C18.2133 5.87223 22.4679 5.27822 26.7225 4.67163C31.2258 4.03144 35.7291 3.38077 40.2324 2.73848C44.4683 2.13608 48.7043 1.53998 52.9403 0.939677C54.1713 0.765464 55.4023 0.587052 56.6788 0.402344V4.95708C61.5096 4.27072 66.2864 3.59276 71.1006 2.9085V25.8312C63.754 26.8765 56.453 27.9176 49.0711 28.9692V28.9734Z" fill="#848484"/>
<path d="M13.7306 11.0713V25.2456C13.0654 25.3442 12.4105 25.4429 11.7121 25.5457V16.134C11.6727 16.1298 11.6334 16.1256 11.5919 16.1193C11.4427 17.1016 11.2914 18.0839 11.1463 19.0683C10.8417 21.1463 10.5391 23.2264 10.2428 25.3064C10.1993 25.6108 10.0956 25.7976 9.75577 25.8291C9.21902 25.8773 8.68849 25.9655 8.08336 26.0453C7.57355 23.0207 7.06996 20.0275 6.56637 17.0323C6.53528 17.0344 6.50212 17.0365 6.47104 17.0386V26.2761C5.81616 26.3706 5.20481 26.4588 4.55615 26.5511V12.3852C5.52603 12.2425 6.50005 12.0998 7.57769 11.9403C8.09579 15.0719 8.61596 18.1994 9.13406 21.3289C9.1755 21.3289 9.21902 21.3289 9.26047 21.3289C9.38067 20.5292 9.50709 19.7295 9.62314 18.9277C9.96094 16.5957 10.2967 14.2638 10.6282 11.9319C10.6697 11.6464 10.7588 11.4827 11.0821 11.4449C11.9566 11.3442 12.8271 11.2035 13.7285 11.0734L13.7306 11.0713Z" fill="#848484"/>
<path d="M60.6372 8.9724C61.4206 8.86116 62.2039 8.75621 62.9831 8.63447C63.3127 8.58409 63.3665 8.78769 63.4349 9.03747C64.0339 11.2183 64.6411 13.3949 65.2462 15.5736C65.3187 15.8339 65.3995 16.0921 65.5736 16.3523C65.5819 16.1697 65.5964 15.9892 65.5964 15.8066C65.5964 13.4642 65.6068 11.1238 65.5881 8.7814C65.584 8.3679 65.6855 8.19369 66.1187 8.18109C66.5642 8.1685 67.0077 8.06145 67.4927 7.99219V22.1245C66.7943 22.2315 66.0772 22.3428 65.2959 22.4624C64.4089 19.2762 63.5303 16.1131 62.6495 12.9478C62.6122 12.9541 62.5749 12.9583 62.5397 12.9646V22.8402C61.8931 22.9368 61.2921 23.0249 60.6393 23.1215V8.9724H60.6372Z" fill="#848484"/>
<path d="M23.5415 9.66919C25.1683 9.46769 26.7288 8.98073 28.3515 9.29137C29.3836 9.48868 30.0074 10.0617 30.0675 11.1196C30.1276 12.1523 30.0612 13.1996 29.9452 14.2302C29.8581 15.0068 29.4748 15.6869 28.7328 16.1739C30.0094 16.7637 30.0965 17.895 30.1172 19.0515C30.14 20.3067 30.1524 21.5619 30.169 22.9073C29.597 22.9913 28.8779 23.0983 28.0945 23.2159C28.0469 22.9682 27.9723 22.7436 27.9681 22.5169C27.9433 21.3856 27.9515 20.2521 27.9225 19.1208C27.8914 17.9034 27.3609 17.5004 26.1714 17.6935C25.8004 17.7523 25.7072 17.9034 25.7092 18.2602C25.7258 19.7967 25.7154 21.3331 25.7154 22.8695C25.7154 23.0689 25.7154 23.2704 25.7154 23.5391C24.9901 23.6462 24.2855 23.7511 23.5415 23.8602V9.66919ZM25.7196 15.7667C26.1942 15.6743 26.5693 15.6344 26.9236 15.5232C27.4956 15.3448 27.8376 14.9313 27.8604 14.3205C27.8873 13.6299 27.9225 12.931 27.8396 12.2509C27.8003 11.9235 27.5495 11.4323 27.2987 11.3609C26.847 11.2329 26.3206 11.3609 25.8294 11.3987C25.788 11.4029 25.7258 11.5457 25.7258 11.6233C25.7196 12.9687 25.7217 14.3142 25.7217 15.7667H25.7196Z" fill="#848484"/>
<path d="M58.8735 7.74414C58.0984 8.71386 57.3979 9.58913 56.6995 10.4623C56.7182 10.4917 56.7368 10.5211 56.7555 10.5483C57.0539 10.3783 57.371 10.2314 57.6466 10.0299C57.9533 9.80532 58.2062 9.85989 58.3699 10.1537C58.5979 10.5609 58.8921 10.9912 58.9356 11.4341C59.0745 12.8677 59.147 14.3097 59.1802 15.7496C59.2154 17.2272 59.118 18.7091 59.1802 20.1847C59.2962 23.056 56.0281 24.6743 53.9433 23.7424C52.9568 23.3016 52.5195 22.4348 52.503 21.4084C52.4594 18.8518 52.4284 16.2932 52.5092 13.7388C52.5361 12.8719 52.8242 11.9756 53.162 11.1654C53.5847 10.1537 54.4531 9.6374 55.5432 9.50517C55.7545 9.47998 56.0675 9.32256 56.1276 9.15044C56.4654 8.17233 57.1596 7.8344 58.115 7.85748C58.3243 7.86168 58.5336 7.79661 58.8756 7.74414H58.8735ZM56.9586 16.5766C56.9586 15.2416 56.9607 13.9067 56.9586 12.5717C56.9586 12.1226 56.8197 11.728 56.3804 11.5412C55.9162 11.3439 55.4354 11.4362 55.1494 11.8203C54.8966 12.1624 54.6748 12.6242 54.6665 13.0398C54.623 15.5628 54.6417 18.0857 54.6479 20.6087C54.6479 20.8437 54.681 21.0851 54.7411 21.3118C54.8489 21.7274 55.1142 21.9541 55.5597 21.9667C56.4218 21.9898 56.9379 21.4839 56.9524 20.5247C56.971 19.2087 56.9565 17.8926 56.9565 16.5745L56.9586 16.5766Z" fill="#848484"/>
<path d="M38.8149 21.6754C38.0668 21.7845 37.358 21.8895 36.5747 22.0049C35.8721 20.2607 35.1675 18.5123 34.438 16.703C34.0132 17.4607 33.6733 18.1344 33.7251 18.9761C33.7852 19.9605 33.7251 20.9512 33.7458 21.9399C33.7541 22.3114 33.636 22.452 33.263 22.4793C32.7096 22.5192 32.1625 22.6262 31.5781 22.7102V8.53171C32.2827 8.43306 32.9728 8.33651 33.7251 8.23156V14.0709C33.7624 14.0835 33.7997 14.0961 33.837 14.1086C33.9054 13.9806 33.9821 13.8568 34.0401 13.7224C34.8152 11.953 35.5986 10.1857 36.3508 8.40787C36.5311 7.98178 36.7384 7.72571 37.242 7.71522C37.7414 7.70472 38.2367 7.58508 38.8315 7.49902C38.274 8.73951 37.7538 9.89394 37.2316 11.0484C36.8047 11.995 36.3591 12.9332 35.9612 13.8925C35.8721 14.1086 35.8721 14.4277 35.9592 14.646C36.8337 16.8289 37.7352 18.9992 38.6263 21.1758C38.6885 21.3249 38.7403 21.4781 38.8149 21.6733V21.6754Z" fill="#848484"/>
<path d="M20.2484 10.1436C20.9986 14.7927 21.7384 19.3664 22.4865 23.9967C21.7425 24.1079 21.0504 24.2129 20.2836 24.3262C20.1468 23.4992 20.0142 22.6827 19.8712 21.8159C19.0236 21.9334 18.205 22.0279 17.3947 22.1769C17.2786 22.1979 17.1563 22.4665 17.1253 22.6387C17.0216 23.2138 16.945 23.7931 16.8807 24.3745C16.8455 24.6935 16.7315 24.8615 16.3833 24.8845C15.8839 24.9202 15.3886 25.0147 14.7959 25.0965C14.9389 24.1331 15.0695 23.2201 15.2083 22.3091C15.7699 18.6611 16.3502 15.0152 16.8869 11.3651C16.9719 10.7879 17.1356 10.5109 17.7594 10.4794C18.5656 10.4374 19.3655 10.2674 20.2442 10.1436H20.2484ZM18.5987 13.3801C18.5531 13.3801 18.5075 13.3781 18.462 13.376C18.1366 15.626 17.8112 17.8761 17.4734 20.2123C18.2133 20.1073 18.864 20.0171 19.581 19.9163C19.2495 17.7082 18.9241 15.5442 18.5987 13.3801Z" fill="#848484"/>
<path d="M39.8447 7.35174C41.8321 7.06838 43.7926 6.79132 45.8008 6.50586V8.52296C44.5863 8.70347 43.345 8.88608 42.0767 9.07289V13.0042C43.0611 12.8678 44.0185 12.7356 45.0568 12.5928C45.0568 13.2162 45.0734 13.8123 45.0402 14.4021C45.034 14.4987 44.8039 14.6351 44.663 14.6603C43.917 14.7884 43.1605 14.8702 42.4166 15.0066C42.2777 15.0318 42.0663 15.2228 42.0643 15.3404C42.0394 16.5998 42.0477 17.8591 42.0477 19.1878C43.3201 19.0115 44.5408 18.8435 45.8049 18.6693V20.6906C43.8403 20.9698 41.8653 21.2489 39.8468 21.5344V7.35174H39.8447Z" fill="#848484"/>
</g>
<defs>
<clipPath id="clip0_8410_4254">
<rect width="70.4487" height="31.2367" fill="white" transform="translate(0.651855 0.40625)"/>
</clipPath>
</defs>
</svg>
