<svg width="17" height="14" viewBox="0 0 17 14" fill="none" xmlns="http://www.w3.org/2000/svg">
<path fill-rule="evenodd" clip-rule="evenodd" d="M4.6356 1.45817C4.6356 1.24808 4.55214 1.04659 4.40359 0.898032C4.25503 0.749475 4.05354 0.666016 3.84345 0.666016C3.63336 0.666016 3.43187 0.749475 3.28331 0.898032C3.13476 1.04659 3.0513 1.24808 3.0513 1.45817V10.6361L2.02704 9.6118C1.87764 9.46751 1.67754 9.38766 1.46984 9.38947C1.26214 9.39127 1.06346 9.47458 0.916587 9.62145C0.769715 9.76833 0.686405 9.96701 0.6846 10.1747C0.682795 10.3824 0.76264 10.5825 0.906937 10.7319L3.2834 13.1084C3.43195 13.2569 3.6334 13.3403 3.84345 13.3403C4.0535 13.3403 4.25495 13.2569 4.4035 13.1084L6.77996 10.7319C6.92426 10.5825 7.0041 10.3824 7.0023 10.1747C7.00049 9.96701 6.91718 9.76833 6.77031 9.62145C6.62344 9.47458 6.42476 9.39127 6.21706 9.38947C6.00936 9.38766 5.80926 9.46751 5.65986 9.6118L4.6356 10.6361V1.45817ZM9.38852 2.25032C9.17843 2.25032 8.97694 2.33378 8.82839 2.48234C8.67983 2.6309 8.59637 2.83238 8.59637 3.04248C8.59637 3.25257 8.67983 3.45406 8.82839 3.60261C8.97694 3.75117 9.17843 3.83463 9.38852 3.83463H15.7257C15.9358 3.83463 16.1373 3.75117 16.2859 3.60261C16.4344 3.45406 16.5179 3.25257 16.5179 3.04248C16.5179 2.83238 16.4344 2.6309 16.2859 2.48234C16.1373 2.33378 15.9358 2.25032 15.7257 2.25032H9.38852ZM9.38852 6.21109C9.17843 6.21109 8.97694 6.29455 8.82839 6.44311C8.67983 6.59166 8.59637 6.79315 8.59637 7.00324C8.59637 7.21334 8.67983 7.41482 8.82839 7.56338C8.97694 7.71194 9.17843 7.7954 9.38852 7.7954H12.5571C12.7672 7.7954 12.9687 7.71194 13.1173 7.56338C13.2658 7.41482 13.3493 7.21334 13.3493 7.00324C13.3493 6.79315 13.2658 6.59166 13.1173 6.44311C12.9687 6.29455 12.7672 6.21109 12.5571 6.21109H9.38852ZM9.38852 10.1719C9.17843 10.1719 8.97694 10.2553 8.82839 10.4039C8.67983 10.5524 8.59637 10.7539 8.59637 10.964C8.59637 11.1741 8.67983 11.3756 8.82839 11.5241C8.97694 11.6727 9.17843 11.7562 9.38852 11.7562H10.1807C10.3908 11.7562 10.5923 11.6727 10.7408 11.5241C10.8894 11.3756 10.9728 11.1741 10.9728 10.964C10.9728 10.7539 10.8894 10.5524 10.7408 10.4039C10.5923 10.2553 10.3908 10.1719 10.1807 10.1719H9.38852Z" fill="#BC1920"/>
</svg>
