<svg width="24" height="25" viewBox="0 0 24 25" fill="none" xmlns="http://www.w3.org/2000/svg">
<mask id="path-1-inside-1_4331_20734" fill="white">
<path fill-rule="evenodd" clip-rule="evenodd" d="M7.4449 15.2324H17.9761C18.2369 15.2324 18.4657 15.0599 18.5362 14.8095L20.868 6.64871C20.9181 6.47278 20.8838 6.28379 20.7734 6.13761C20.6629 5.99189 20.4911 5.90582 20.3077 5.90582H6.09922L5.68254 4.03082C5.62334 3.76381 5.38653 3.57422 5.1133 3.57422H1.57704C1.25493 3.57422 0.994141 3.83501 0.994141 4.15712C0.994141 4.47938 1.25493 4.74002 1.57704 4.74002H4.64546L6.75043 14.2121C6.1311 14.4814 5.6962 15.0979 5.6962 15.8153C5.6962 16.7795 6.48069 17.564 7.4449 17.564H17.9761C18.2984 17.564 18.559 17.3033 18.559 16.9811C18.559 16.659 18.2984 16.3982 17.9761 16.3982H7.4449C7.12385 16.3982 6.862 16.1369 6.862 15.8153C6.862 15.4936 7.12385 15.2324 7.4449 15.2324ZM6.86219 19.3127C6.86219 20.277 7.64668 21.0614 8.61104 21.0614C9.57526 21.0614 10.3597 20.277 10.3597 19.3127C10.3597 18.3485 9.57526 17.564 8.61104 17.564C7.64668 17.564 6.86219 18.3485 6.86219 19.3127ZM16.8098 21.0614C15.8456 21.0614 15.0611 20.277 15.0611 19.3127C15.0611 18.3485 15.8456 17.564 16.8098 17.564C17.7741 17.564 18.5585 18.3485 18.5585 19.3127C18.5585 20.277 17.7741 21.0614 16.8098 21.0614Z"/>
</mask>
<path d="M18.5362 14.8095L17.5752 14.5349L17.5742 14.5384L18.5362 14.8095ZM20.868 6.64871L21.829 6.9233L21.8293 6.92242L20.868 6.64871ZM20.7734 6.13761L21.5711 5.53541L21.5698 5.53368L20.7734 6.13761ZM6.09922 5.90582L5.12354 6.12264L5.29747 6.9053H6.09922V5.90582ZM5.68254 4.03082L4.70675 4.24717L4.70686 4.24765L5.68254 4.03082ZM4.64546 4.74002L5.62114 4.5232L5.44721 3.74054H4.64546V4.74002ZM6.75043 14.2121L7.14896 15.1287L7.90494 14.8L7.72611 13.9953L6.75043 14.2121ZM17.9761 14.2329H7.4449V16.2319H17.9761V14.2329ZM17.5742 14.5384C17.6258 14.3555 17.7919 14.2329 17.9761 14.2329V16.2319C18.6819 16.2319 19.3055 15.7644 19.4982 15.0806L17.5742 14.5384ZM19.907 6.37412L17.5752 14.5349L19.4973 15.0841L21.829 6.9233L19.907 6.37412ZM19.9757 6.73981C19.8949 6.63277 19.872 6.49684 19.9067 6.375L21.8293 6.92242C21.9641 6.44872 21.8726 5.93481 21.5711 5.53541L19.9757 6.73981ZM20.3077 6.9053C20.1761 6.9053 20.0541 6.8432 19.977 6.74154L21.5698 5.53368C21.2717 5.14057 20.806 4.90634 20.3077 4.90634V6.9053ZM6.09922 6.9053H20.3077V4.90634H6.09922V6.9053ZM4.70686 4.24765L5.12354 6.12264L7.0749 5.68899L6.65822 3.814L4.70686 4.24765ZM5.1133 4.5737C4.91881 4.5737 4.74919 4.43857 4.70675 4.24717L6.65832 3.81448C6.49748 3.08905 5.85426 2.57474 5.1133 2.57474V4.5737ZM1.57704 4.5737H5.1133V2.57474H1.57704V4.5737ZM1.99362 4.15712C1.99362 4.387 1.80693 4.5737 1.57704 4.5737V2.57474C0.702929 2.57474 -0.00534117 3.28301 -0.00534117 4.15712H1.99362ZM1.57704 3.74054C1.80676 3.74054 1.99362 3.92722 1.99362 4.15712H-0.00534117C-0.00534117 5.03155 0.703099 5.7395 1.57704 5.7395V3.74054ZM4.64546 3.74054H1.57704V5.7395H4.64546V3.74054ZM7.72611 13.9953L5.62114 4.5232L3.66978 4.95684L5.77475 14.429L7.72611 13.9953ZM6.69568 15.8153C6.69568 15.5126 6.87892 15.2461 7.14896 15.1287L6.35189 13.2956C5.38327 13.7167 4.69672 14.6832 4.69672 15.8153H6.69568ZM7.4449 16.5645C7.03268 16.5645 6.69568 16.2275 6.69568 15.8153H4.69672C4.69672 17.3315 5.92869 18.5634 7.4449 18.5634V16.5645ZM17.9761 16.5645H7.4449V18.5634H17.9761V16.5645ZM17.5595 16.9811C17.5595 16.7513 17.7464 16.5645 17.9761 16.5645V18.5634C18.8504 18.5634 19.5585 17.8553 19.5585 16.9811H17.5595ZM17.9761 17.3977C17.7462 17.3977 17.5595 17.2108 17.5595 16.9811H19.5585C19.5585 16.1071 18.8505 15.3987 17.9761 15.3987V17.3977ZM7.4449 17.3977H17.9761V15.3987H7.4449V17.3977ZM5.86252 15.8153C5.86252 16.6896 6.57253 17.3977 7.4449 17.3977V15.3987C7.67517 15.3987 7.86148 15.5843 7.86148 15.8153H5.86252ZM7.4449 14.2329C6.57253 14.2329 5.86252 14.9409 5.86252 15.8153H7.86148C7.86148 16.0463 7.67517 16.2319 7.4449 16.2319V14.2329ZM8.61104 20.0619C8.19856 20.0619 7.86167 19.7249 7.86167 19.3127H5.86271C5.86271 20.8292 7.09479 22.0609 8.61104 22.0609V20.0619ZM9.36026 19.3127C9.36026 19.725 9.02331 20.0619 8.61104 20.0619V22.0609C10.1272 22.0609 11.3592 20.8291 11.3592 19.3127H9.36026ZM8.61104 18.5635C9.02326 18.5635 9.36026 18.9005 9.36026 19.3127H11.3592C11.3592 17.7965 10.1273 16.5645 8.61104 16.5645V18.5635ZM7.86167 19.3127C7.86167 18.9005 8.19862 18.5635 8.61104 18.5635V16.5645C7.09473 16.5645 5.86271 17.7964 5.86271 19.3127H7.86167ZM14.0616 19.3127C14.0616 20.8291 15.2936 22.0609 16.8098 22.0609V20.0619C16.3975 20.0619 16.0605 19.725 16.0605 19.3127H14.0616ZM16.8098 16.5645C15.2936 16.5645 14.0616 17.7965 14.0616 19.3127H16.0605C16.0605 18.9005 16.3976 18.5635 16.8098 18.5635V16.5645ZM19.5579 19.3127C19.5579 17.7965 18.3262 16.5645 16.8098 16.5645V18.5635C17.2221 18.5635 17.559 18.9004 17.559 19.3127H19.5579ZM16.8098 22.0609C18.3261 22.0609 19.5579 20.829 19.5579 19.3127H17.559C17.559 19.725 17.2221 20.0619 16.8098 20.0619V22.0609Z" fill="black" mask="url(#path-1-inside-1_4331_20734)"/>
</svg>
