<svg width="24" height="25" viewBox="0 0 24 25" fill="none" xmlns="http://www.w3.org/2000/svg">
<path fill-rule="evenodd" clip-rule="evenodd" d="M11.9904 11.9862H11.9684V11.986C9.30192 11.9746 7.13456 9.78596 7.13699 7.10745C7.13941 4.43665 9.31976 2.26367 11.9972 2.26367C13.298 2.26367 14.52 2.76987 15.4387 3.68913C16.3571 4.60839 16.8628 5.8315 16.8626 7.13321C16.8621 8.43361 16.3557 9.65385 15.4365 10.5689C14.518 11.4833 13.2949 11.9862 11.9904 11.9862ZM11.9913 3.42425C11.0129 3.42425 10.091 3.80561 9.39461 4.49874C8.69029 5.1998 8.30147 6.13381 8.29993 7.12859C8.29861 8.11236 8.6817 9.03889 9.37898 9.7373C10.076 10.4355 11.0038 10.8228 11.9917 10.8279H12.0113C12.9847 10.8279 13.9026 10.4494 14.5975 9.76086C15.3042 9.06068 15.6957 8.12579 15.6996 7.12815C15.7036 6.14394 15.3205 5.21609 14.621 4.51525C13.9218 3.81485 12.9922 3.42755 12.0036 3.42425H11.9913ZM21.7197 21.743C21.5235 21.9867 21.2542 22.1393 20.8725 22.2236V22.2234C20.8223 22.2347 20.7705 22.2441 20.7159 22.254L20.6635 22.2637H3.33744C3.30639 22.2573 3.27513 22.2514 3.24387 22.2454L3.24226 22.2451C3.16183 22.2298 3.08576 22.2154 3.01511 22.1955C2.47525 22.0433 2.16723 21.7434 2.04592 21.2518C2.03227 21.1967 2.02192 21.1375 2.01113 21.075C2.00717 21.0518 2.00321 21.0287 1.99902 21.0058V20.6315C2.00502 20.5908 2.01063 20.5499 2.01621 20.5091L2.0173 20.5012C2.03183 20.395 2.0457 20.2946 2.06441 20.196C2.20114 19.4797 2.48604 18.7793 2.91119 18.1142C3.56421 17.093 4.44445 16.2853 5.60277 15.6455C6.46474 15.169 7.42424 14.8227 8.53588 14.5866C9.30339 14.4235 10.1075 14.3222 10.9936 14.2768C11.7088 14.2401 12.4223 14.2418 13.1145 14.2819C14.534 14.364 15.7689 14.5926 16.8894 14.9805C17.9832 15.3593 18.894 15.8615 19.6734 16.5159C20.6789 17.36 21.3837 18.381 21.7683 19.5504C21.9299 20.0414 22.003 20.4582 21.9988 20.8625C21.9949 21.2267 21.9037 21.5147 21.7197 21.743ZM3.15316 20.7696L3.1012 21.089H20.859L20.8366 20.7581C20.835 20.7324 20.8335 20.7099 20.8315 20.6872C20.8038 20.3765 20.7274 20.0599 20.5979 19.7191C20.1695 18.5913 19.3894 17.6529 18.2791 16.9294C17.6316 16.5077 16.9012 16.1812 16.0463 15.9311C15.1716 15.6752 14.2374 15.5187 13.1901 15.4524C12.0192 15.3782 10.8822 15.4106 9.8111 15.5484C8.83707 15.6737 7.97973 15.8831 7.18976 16.1885C5.99291 16.6513 5.06489 17.2821 4.35242 18.117C3.79165 18.7741 3.41626 19.4998 3.23616 20.2737C3.20904 20.3896 3.19235 20.5049 3.17616 20.6167L3.17583 20.619L3.17424 20.6299C3.1675 20.6761 3.16071 20.7226 3.15316 20.7696Z" fill="#2B2B2B"/>
</svg>
