<svg width="25" height="25" viewBox="0 0 25 25" fill="none" xmlns="http://www.w3.org/2000/svg">
<path d="M12.4903 6.60653L12.9287 7.4077L13.3671 6.60654C13.6778 6.0387 14.1976 5.27437 14.9646 4.68117L14.6589 4.28586L14.9646 4.68117C15.7562 4.06901 16.6441 3.76341 17.6162 3.76341C20.3313 3.76341 22.429 5.97789 22.429 9.02594C22.429 10.6467 21.7852 12.0318 20.5801 13.4859C19.3624 14.9553 17.6102 16.4507 15.4422 18.2982L15.4422 18.2982L15.4419 18.2985C14.7093 18.9228 13.8768 19.6323 13.0111 20.3893L13.011 20.3895C12.9886 20.4091 12.9595 20.4202 12.9287 20.4202C12.8979 20.4202 12.8689 20.4091 12.8465 20.3895L12.8463 20.3893C11.9811 19.6327 11.1491 18.9236 10.4172 18.2999L10.4157 18.2986L10.4157 18.2986C8.24741 16.4508 6.49513 14.9554 5.27735 13.486C4.07223 12.0318 3.42845 10.6467 3.42845 9.02594C3.42845 5.97789 5.52608 3.76341 8.24121 3.76341C9.21327 3.76341 10.1013 4.06901 10.8928 4.68117L11.1939 4.29182L10.8928 4.68117C11.6598 5.27437 12.1796 6.03867 12.4903 6.60653Z" stroke="black" stroke-width="0.999482"/>
</svg>
