<svg width="18" height="19" viewBox="0 0 18 19" fill="none" xmlns="http://www.w3.org/2000/svg">
<path fill-rule="evenodd" clip-rule="evenodd" d="M0.0297852 4.34005C0.0297852 3.39853 0.403615 2.49557 1.06904 1.82981C1.73446 1.16406 2.63696 0.790039 3.57801 0.790039H14.2227C15.1637 0.790039 16.0662 1.16406 16.7317 1.82981C17.3971 2.49557 17.7709 3.39853 17.7709 4.34005V14.9901C17.7709 15.9316 17.3971 16.8346 16.7317 17.5003C16.0662 18.1661 15.1637 18.5401 14.2227 18.5401H3.57801C2.63696 18.5401 1.73446 18.1661 1.06904 17.5003C0.403615 16.8346 0.0297852 15.9316 0.0297852 14.9901V4.34005ZM3.57801 2.56504C3.10749 2.56504 2.65624 2.75205 2.32352 3.08493C1.99081 3.41781 1.8039 3.86929 1.8039 4.34005V14.9901C1.8039 15.4608 1.99081 15.9123 2.32352 16.2452C2.65624 16.5781 3.10749 16.7651 3.57801 16.7651H14.2227C14.6932 16.7651 15.1445 16.5781 15.4772 16.2452C15.8099 15.9123 15.9968 15.4608 15.9968 14.9901V4.34005C15.9968 3.86929 15.8099 3.41781 15.4772 3.08493C15.1445 2.75205 14.6932 2.56504 14.2227 2.56504H3.57801ZM8.90035 7.00256C8.19457 7.00256 7.51769 7.28307 7.01862 7.78239C6.51956 8.2817 6.23918 8.95892 6.23918 9.66506C6.23918 10.3712 6.51956 11.0484 7.01862 11.5477C7.51769 12.0471 8.19457 12.3276 8.90035 12.3276C9.60614 12.3276 10.283 12.0471 10.7821 11.5477C11.2812 11.0484 11.5615 10.3712 11.5615 9.66506C11.5615 8.95892 11.2812 8.2817 10.7821 7.78239C10.283 7.28307 9.60614 7.00256 8.90035 7.00256ZM4.46507 9.66506C4.46507 8.48816 4.93236 7.35946 5.76413 6.52727C6.59591 5.69507 7.72404 5.22755 8.90035 5.22755C10.0767 5.22755 11.2048 5.69507 12.0366 6.52727C12.8684 7.35946 13.3356 8.48816 13.3356 9.66506C13.3356 10.842 12.8684 11.9707 12.0366 12.8029C11.2048 13.6351 10.0767 14.1026 8.90035 14.1026C7.72404 14.1026 6.59591 13.6351 5.76413 12.8029C4.93236 11.9707 4.46507 10.842 4.46507 9.66506V9.66506ZM13.7792 6.11505C14.1321 6.11505 14.4705 5.9748 14.72 5.72514C14.9696 5.47548 15.1098 5.13687 15.1098 4.7838C15.1098 4.43073 14.9696 4.09212 14.72 3.84246C14.4705 3.5928 14.1321 3.45255 13.7792 3.45255C13.4263 3.45255 13.0878 3.5928 12.8383 3.84246C12.5888 4.09212 12.4486 4.43073 12.4486 4.7838C12.4486 5.13687 12.5888 5.47548 12.8383 5.72514C13.0878 5.9748 13.4263 6.11505 13.7792 6.11505Z" fill="#9A9A9A"/>
</svg>
