<svg width="42" height="42" viewBox="0 0 42 42" fill="none" xmlns="http://www.w3.org/2000/svg">
<path fill-rule="evenodd" clip-rule="evenodd" d="M6.94336 20.8919C6.94336 19.9333 7.72043 19.1562 8.679 19.1562H32.978C33.9366 19.1562 34.7136 19.9333 34.7136 20.8919C34.7136 21.8505 33.9366 22.6275 32.978 22.6275H8.679C7.72043 22.6275 6.94336 21.8505 6.94336 20.8919Z" fill="#2B2B2B"/>
<path fill-rule="evenodd" clip-rule="evenodd" d="M19.6002 7.51422C20.278 6.83641 21.3769 6.83641 22.0547 7.51422L34.2042 19.6637C34.882 20.3415 34.882 21.4404 34.2042 22.1183L22.0547 34.2677C21.3769 34.9455 20.278 34.9455 19.6002 34.2677C18.9223 33.5899 18.9223 32.491 19.6002 31.8132L30.5224 20.891L19.6002 9.96878C18.9223 9.29097 18.9223 8.19203 19.6002 7.51422Z" fill="#2B2B2B"/>
</svg>
