<svg width="38" height="38" viewBox="0 0 38 38" fill="none" xmlns="http://www.w3.org/2000/svg">
<g clip-path="url(#clip0_4150_2922)">
<path d="M19.0144 3.52734C13.046 3.52734 8.21875 8.35455 8.21875 14.323C8.21875 20.7542 15.0354 29.622 17.8423 32.9995C18.4592 33.7398 19.5851 33.7398 20.202 32.9995C22.9934 29.622 29.8101 20.7542 29.8101 14.323C29.8101 8.35455 24.9829 3.52734 19.0144 3.52734ZM19.0144 18.1786C16.8861 18.1786 15.1588 16.4513 15.1588 14.323C15.1588 12.1947 16.8861 10.4674 19.0144 10.4674C21.1427 10.4674 22.87 12.1947 22.87 14.323C22.87 16.4513 21.1427 18.1786 19.0144 18.1786Z" fill="#2B2B2B"/>
</g>
<defs>
<clipPath id="clip0_4150_2922">
<rect width="37.0138" height="37.0138" fill="white" transform="translate(0.507812 0.443359)"/>
</clipPath>
</defs>
</svg>
