<svg width="13" height="12" viewBox="0 0 13 12" fill="none" xmlns="http://www.w3.org/2000/svg">
<g id="ICONO-UBICACION" clip-path="url(#clip0_2356_29499)">
<path id="Vector" d="M6.52569 1.30469C4.6985 1.30469 3.2207 2.78316 3.2207 4.61117C3.2207 6.58089 5.30757 9.29693 6.16686 10.3314C6.35572 10.5581 6.70038 10.5581 6.88924 10.3314C7.74381 9.29693 9.83068 6.58089 9.83068 4.61117C9.83068 2.78316 8.35288 1.30469 6.52569 1.30469ZM6.52569 5.79206C5.87414 5.79206 5.34534 5.26302 5.34534 4.61117C5.34534 3.95932 5.87414 3.43028 6.52569 3.43028C7.17724 3.43028 7.70604 3.95932 7.70604 4.61117C7.70604 5.26302 7.17724 5.79206 6.52569 5.79206Z" fill="white"/>
</g>
<defs>
<clipPath id="clip0_2356_29499">
<rect width="11.3314" height="11.3365" fill="white" transform="translate(0.861328 0.361328)"/>
</clipPath>
</defs>
</svg>
