<svg width="128" height="56" viewBox="0 0 128 56" fill="none" xmlns="http://www.w3.org/2000/svg">
<g clip-path="url(#clip0_8403_7834)">
<path d="M87.9741 51.2133V13.836C86.5696 13.9865 85.3082 14.1258 83.9678 14.2725V10.6639C87.6352 10.1559 91.3253 9.64035 95.1057 9.1173V12.741C94.202 12.8765 93.3059 13.0759 92.4022 13.1248C91.6943 13.1625 91.5474 13.4522 91.5512 14.0994C91.5776 17.9376 91.5625 21.7796 91.5625 25.6178C91.5625 32.376 91.5625 39.138 91.5625 45.8962C91.5625 46.2499 91.5625 46.6037 91.5625 47.0627C93.7653 46.7579 95.8626 46.4757 97.9636 46.1822C105.238 45.1587 112.509 44.1352 119.784 43.1117C121.147 42.9197 122.514 42.7504 123.869 42.5021C124.103 42.4607 124.306 42.0919 124.464 41.8398C124.54 41.7231 124.479 41.5199 124.479 41.3544C124.479 30.8219 124.479 20.2857 124.479 9.75324V8.63189C115.725 9.8586 107.072 11.0703 98.2159 12.312V4.1427C66.5793 8.58673 35.1648 12.9969 3.74278 17.4108V51.8379C29.8707 48.1314 55.9308 44.4362 82.0512 40.7335V44.3722C54.7372 48.2443 27.4495 52.1126 0.0150615 55.9997V54.7918C0.0150615 41.6667 0.0225922 28.5416 0 15.4127C0 14.5736 0.176972 14.2462 1.09196 14.122C8.79214 13.0834 16.4848 11.9696 24.1812 10.8859C31.9077 9.7984 39.6381 8.73349 47.3684 7.646C55.5505 6.4983 63.7327 5.33179 71.9148 4.18033C79.6112 3.10037 87.3076 2.0317 95.0041 0.955499C97.2407 0.643175 99.4773 0.323326 101.797 -0.0078125V8.15776C110.574 6.92728 119.253 5.71185 128 4.48513V45.5801C114.652 47.4541 101.386 49.3205 87.9741 51.2057V51.2133Z" fill="#000084"/>
<path d="M23.763 19.1191V44.5302C22.5544 44.7071 21.3645 44.884 20.0956 45.0683V28.1953C20.024 28.1878 19.9525 28.1803 19.8772 28.169C19.6061 29.9301 19.3312 31.6911 19.0676 33.4559C18.5141 37.1812 17.9644 40.9103 17.4259 44.6394C17.3469 45.185 17.1586 45.5199 16.5411 45.5763C15.5658 45.6629 14.6019 45.8209 13.5024 45.9639C12.5761 40.5415 11.6611 35.1756 10.7462 29.8059C10.6897 29.8096 10.6294 29.8134 10.573 29.8172V46.3778C9.3831 46.5472 8.27231 46.7052 7.09375 46.8708V21.4747C8.85594 21.2189 10.6257 20.963 12.5837 20.677C13.525 26.2913 14.4701 31.8981 15.4115 37.5086C15.4868 37.5086 15.5658 37.5086 15.6411 37.5086C15.8595 36.0749 16.0892 34.6412 16.3001 33.2038C16.9138 29.0232 17.5238 24.8426 18.1263 20.6619C18.2016 20.1502 18.3635 19.8567 18.9509 19.7889C20.5399 19.6083 22.1213 19.3562 23.7593 19.1229L23.763 19.1191Z" fill="#000084"/>
<path d="M41.5884 16.6063C44.5442 16.2451 47.3795 15.3721 50.3278 15.929C52.203 16.2827 53.3363 17.31 53.4455 19.2065C53.5547 21.0579 53.4342 22.9356 53.2234 24.7832C53.0652 26.1755 52.3686 27.3947 51.0206 28.2677C53.3401 29.3251 53.4982 31.3533 53.5359 33.4267C53.5773 35.6769 53.5999 37.9271 53.63 40.3392C52.5908 40.4897 51.2842 40.6816 49.8609 40.8923C49.7743 40.4483 49.6387 40.0457 49.6312 39.6393C49.586 37.611 49.6011 35.5791 49.5484 33.5508C49.4919 31.3683 48.528 30.6459 46.3666 30.992C45.6926 31.0974 45.5232 31.3683 45.527 32.008C45.5571 34.7625 45.5383 37.517 45.5383 40.2714C45.5383 40.6289 45.5383 40.9902 45.5383 41.4718C44.2204 41.6637 42.9401 41.8519 41.5884 42.0475V16.6063ZM45.5458 27.5377C46.4081 27.3721 47.0896 27.3006 47.7335 27.1012C48.7727 26.7813 49.394 26.04 49.4354 24.945C49.4844 23.707 49.5484 22.4539 49.3978 21.2348C49.3262 20.6477 48.8706 19.7672 48.415 19.6393C47.5941 19.4097 46.6377 19.6393 45.7453 19.707C45.67 19.7145 45.5571 19.9704 45.5571 20.1096C45.5458 22.5217 45.5496 24.9337 45.5496 27.5377H45.5458Z" fill="#000084"/>
<path d="M69.3391 38.1297C67.9798 38.3254 66.692 38.5135 65.2687 38.7205C63.9923 35.5935 62.7121 32.459 61.3866 29.2153C60.6147 30.5737 59.9972 31.7816 60.0914 33.2906C60.2005 35.0554 60.0914 36.8315 60.129 38.6038C60.1441 39.2699 59.9294 39.522 59.2517 39.5709C58.2463 39.6424 57.2523 39.8343 56.1904 39.9848V14.5662C57.4707 14.3893 58.7245 14.2163 60.0914 14.0281V24.4966C60.1591 24.5192 60.2269 24.5417 60.2947 24.5643C60.4189 24.3348 60.5583 24.1128 60.6637 23.8719C62.0719 20.6998 63.4952 17.5314 64.8621 14.3442C65.1897 13.5803 65.5662 13.1212 66.4812 13.1024C67.3886 13.0836 68.2886 12.8691 69.3692 12.7148C68.3563 14.9387 67.4112 17.0084 66.4624 19.078C65.6867 20.7751 64.8771 22.4571 64.1542 24.1767C63.9923 24.5643 63.9923 25.1363 64.1504 25.5276C65.7394 29.4411 67.3773 33.332 68.9965 37.2341C69.1094 37.5013 69.2035 37.776 69.3391 38.1259V38.1297Z" fill="#000084"/>
<path d="M35.6054 17.4551C36.9685 25.79 38.3127 33.9894 39.672 42.2904C38.3203 42.4899 37.0626 42.678 35.6694 42.8812C35.4209 41.3986 35.1799 39.9349 34.9201 38.3808C33.3801 38.5915 31.8928 38.7608 30.4205 39.028C30.2096 39.0656 29.9875 39.5473 29.931 39.8558C29.7427 40.8869 29.6034 41.9254 29.4867 42.9678C29.4227 43.5397 29.2156 43.8408 28.583 43.8822C27.6756 43.9461 26.7756 44.1155 25.6987 44.2622C25.9585 42.535 26.1958 40.8982 26.448 39.265C27.4685 32.7251 28.5228 26.1888 29.498 19.6451C29.6524 18.6103 29.9498 18.1136 31.0832 18.0571C32.5479 17.9819 34.0014 17.6771 35.5979 17.4551H35.6054ZM32.6082 23.2575C32.5253 23.2575 32.4425 23.2538 32.3597 23.25C31.7685 27.2839 31.1773 31.3177 30.5636 35.5059C31.9078 35.3177 33.0902 35.1559 34.393 34.9753C33.7905 31.0167 33.1993 27.1371 32.6082 23.2575Z" fill="#000084"/>
<path d="M71.2104 12.452C74.8214 11.944 78.3835 11.4473 82.0321 10.9355V14.5517C79.8256 14.8753 77.5702 15.2027 75.2658 15.5376V22.5856C77.0543 22.341 78.7939 22.1039 80.6804 21.8481C80.6804 22.9657 80.7105 24.0343 80.6502 25.0917C80.6389 25.2648 80.221 25.5094 79.9649 25.5546C78.6094 25.7841 77.235 25.9308 75.8833 26.1754C75.631 26.2206 75.2469 26.563 75.2432 26.7737C75.198 29.0315 75.213 31.2893 75.213 33.6712C77.525 33.3551 79.7428 33.0541 82.0397 32.7418V36.3655C78.4701 36.8659 74.8817 37.3664 71.2142 37.8782V12.452H71.2104Z" fill="#000084"/>
<path d="M108.989 15.3549C110.412 15.1555 111.835 14.9674 113.251 14.7491C113.85 14.6588 113.948 15.0238 114.072 15.4716C115.16 19.3813 116.263 23.2835 117.363 27.1894C117.495 27.656 117.642 28.1188 117.958 28.5854C117.973 28.2581 117.999 27.9344 117.999 27.6071C117.999 23.4076 118.018 19.212 117.984 15.0125C117.977 14.2712 118.161 13.9589 118.948 13.9363C119.758 13.9137 120.564 13.7218 121.445 13.5977V38.9335C120.176 39.1254 118.873 39.3248 117.453 39.5393C115.842 33.8272 114.245 28.1565 112.645 22.4819C112.577 22.4932 112.509 22.5008 112.445 22.512V40.2167C111.271 40.3898 110.179 40.5478 108.993 40.7209V15.3549H108.989Z" fill="#FC2774"/>
<path d="M105.785 13.1543C104.376 14.8928 103.104 16.4619 101.835 18.0273C101.869 18.08 101.902 18.1327 101.936 18.1816C102.479 17.8768 103.055 17.6134 103.555 17.2521C104.113 16.8495 104.572 16.9473 104.87 17.4741C105.284 18.2042 105.818 18.9756 105.897 19.7695C106.15 22.3396 106.282 24.9248 106.342 27.5061C106.406 30.1552 106.229 32.8119 106.342 35.4572C106.553 40.6049 100.615 43.5061 96.8267 41.8354C95.0344 41.0452 94.2399 39.4911 94.2098 37.651C94.1307 33.0677 94.0742 28.4807 94.2211 23.9012C94.27 22.3471 94.7934 20.7404 95.4072 19.2879C96.1753 17.4741 97.753 16.5485 99.7336 16.3114C100.118 16.2662 100.686 15.984 100.795 15.6755C101.409 13.9219 102.671 13.3161 104.406 13.3575C104.787 13.365 105.167 13.2484 105.788 13.1543H105.785ZM102.305 28.9887C102.305 26.5955 102.309 24.2023 102.305 21.809C102.305 21.0038 102.053 20.2963 101.255 19.9614C100.411 19.6077 99.5378 19.7733 99.0182 20.4619C98.5588 21.0753 98.1559 21.9031 98.1408 22.6482C98.0618 27.1712 98.0956 31.6943 98.1069 36.2173C98.1069 36.6388 98.1672 37.0715 98.2764 37.4779C98.4722 38.223 98.9542 38.6294 99.7637 38.6519C101.33 38.6933 102.268 37.7865 102.294 36.0668C102.328 33.7074 102.302 31.3481 102.302 28.985L102.305 28.9887Z" fill="#FC2774"/>
</g>
<defs>
<clipPath id="clip0_8403_7834">
<rect width="128" height="56" fill="white"/>
</clipPath>
</defs>
</svg>
