<svg width="39" height="39" viewBox="0 0 39 39" fill="none" xmlns="http://www.w3.org/2000/svg">
<g id="Icono-carrito">
<path id="Union" fill-rule="evenodd" clip-rule="evenodd" d="M12.4475 23.7728H29.4637C29.885 23.7728 30.2547 23.4942 30.3687 23.0895L34.1363 9.90346C34.2173 9.61919 34.1618 9.31383 33.9835 9.07763C33.805 8.84217 33.5273 8.7031 33.231 8.7031H10.2731L9.59987 5.67351C9.50421 5.24207 9.12159 4.93573 8.6801 4.93573H2.96626C2.44579 4.93573 2.02441 5.35711 2.02441 5.87757C2.02441 6.39828 2.44579 6.81941 2.96626 6.81941H7.92417L11.3254 22.1244C10.3246 22.5595 9.62194 23.5555 9.62194 24.7147C9.62194 26.2726 10.8895 27.5402 12.4475 27.5402H14.3314C12.7732 27.5402 11.5056 28.8078 11.5056 30.3657C11.5056 31.9239 12.7732 33.1912 14.3314 33.1912C15.8894 33.1912 17.1569 31.9239 17.1569 30.3657C17.1569 28.8078 15.8894 27.5402 14.3314 27.5402H27.579C26.0211 27.5402 24.7535 28.8078 24.7535 30.3657C24.7535 31.9239 26.0211 33.1912 27.579 33.1912C29.1373 33.1912 30.4046 31.9239 30.4046 30.3657C30.4046 28.8078 29.1373 27.5402 27.579 27.5402H29.4637C29.9844 27.5402 30.4055 27.1191 30.4055 26.5984C30.4055 26.0779 29.9844 25.6565 29.4637 25.6565H12.4475C11.9287 25.6565 11.5056 25.2344 11.5056 24.7147C11.5056 24.1949 11.9287 23.7728 12.4475 23.7728Z" fill="#353535"/>
</g>
</svg>
