<svg width="40" height="40" viewBox="0 0 40 40" fill="none" xmlns="http://www.w3.org/2000/svg">
<g id="Icono-calaveraceleste">
<path id="icono-de-calavera-y-huesos-ilustracio&#204;&#129;n-plana-color-u&#204;&#129;nico-para-uso-disen&#204;&#131;o-web-etc-161142914 1 (Traced)" fill-rule="evenodd" clip-rule="evenodd" d="M17.9924 3.43236C17.2236 3.57564 16.5275 3.82737 15.6847 4.26673C14.6142 4.82487 14.0519 5.2232 13.4407 5.85646C11.9758 7.3741 11.1645 9.07316 10.9818 11.0065C10.8003 12.9272 11.0925 16.4859 11.5477 17.898C11.9438 19.1269 12.4012 19.5779 13.9198 20.2365C14.2689 20.388 14.6747 20.8093 14.8592 21.2121C14.9359 21.3793 15.112 21.8484 15.2506 22.2545C15.5699 23.1901 15.8082 23.6007 16.0487 23.6296C16.2457 23.6532 16.3128 23.5456 16.3986 23.0684L16.4471 22.7984L16.504 23.2034C16.5352 23.4261 16.5759 23.7085 16.5943 23.8309C16.6354 24.1039 16.9375 24.3163 17.2854 24.3167C17.686 24.3171 17.7863 24.169 17.8795 23.4396L17.9615 22.7984L18.031 23.5656C18.113 24.4706 18.1909 24.5869 18.7146 24.5869C19.1864 24.5869 19.2906 24.4343 19.3474 23.6604C19.3725 23.3183 19.4139 23.0518 19.4394 23.068C19.465 23.0842 19.5057 23.3631 19.53 23.6876C19.5852 24.4278 19.6977 24.5869 20.1654 24.5869C20.681 24.5869 20.7554 24.4766 20.8503 23.5697C20.8948 23.1455 20.9358 22.8592 20.9416 22.9334C20.9891 23.5454 21.0949 24.088 21.1872 24.193C21.4164 24.4537 22.1681 24.258 22.2669 23.912C22.2934 23.8192 22.3369 23.5307 22.3636 23.2709L22.4122 22.7984L22.4908 23.1444C22.5921 23.5897 22.6268 23.642 22.822 23.642C22.9427 23.642 23.0322 23.5628 23.1769 23.328C23.2833 23.1552 23.4046 22.9047 23.4463 22.7712C23.6771 22.0324 24.0644 21.0803 24.2262 20.8538C24.4791 20.4998 24.7533 20.3043 25.3022 20.0867C26.1896 19.7347 26.7031 19.2801 27.0776 18.5146C27.3598 17.9377 27.4722 17.5266 27.6313 16.4881C28.0033 14.0612 28.0565 11.5419 27.7657 10.1182C27.449 8.56772 26.6284 7.07053 25.4125 5.82534C24.8284 5.22711 24.2327 4.81063 23.1842 4.26761C21.8087 3.55519 20.8661 3.32363 19.3822 3.33369C18.8911 3.33699 18.2657 3.3814 17.9924 3.43236ZM16.719 13.8159C17.3538 14.0274 17.7099 14.2309 17.893 14.4862C18.0084 14.647 18.0288 14.7655 18.0208 15.2286C17.993 16.8207 17.2711 17.7434 15.8988 17.9408C15.0107 18.0686 13.5863 17.3193 13.2145 16.5288C13.0446 16.1676 13.032 15.3744 13.1884 14.8764C13.3114 14.4842 13.6508 14.041 13.9554 13.8747C14.5679 13.5404 15.8132 13.5139 16.719 13.8159ZM24.2614 13.6597C24.7702 13.7565 25.0799 13.9259 25.3568 14.2589C25.6436 14.6038 25.7999 15.0985 25.7999 15.6613C25.7999 16.2635 25.6933 16.5805 25.3637 16.9578C24.842 17.555 23.6639 18.0372 22.9586 17.942C21.6575 17.7665 20.9733 16.9254 20.8497 15.3494C20.7872 14.552 20.9978 14.2526 21.8556 13.9195C22.6678 13.604 23.4977 13.5144 24.2614 13.6597ZM19.8249 18.226C20.0547 18.4501 20.6202 19.8812 20.6202 20.2386C20.6202 20.7557 20.398 20.875 19.4345 20.875C18.1577 20.875 18.0235 20.618 18.5623 19.2049C18.8963 18.3289 19.1138 18.0404 19.44 18.0404C19.5625 18.0404 19.7051 18.1092 19.8249 18.226ZM7.98996 21.9798C7.52988 22.1345 6.99794 22.4867 6.84852 22.7356C6.6692 23.0343 6.61766 23.4235 6.71667 23.7323C6.75915 23.8648 6.95257 24.1365 7.14639 24.336C7.67459 24.8797 7.6839 25.1056 7.21248 25.9414C6.75024 26.7609 6.75666 27.128 7.24192 27.6275C7.44215 27.8336 7.68186 27.9944 7.93705 28.0937C8.29668 28.2338 8.38198 28.241 9.0478 28.1878C10.2889 28.0885 11.6508 28.1313 12.4244 28.2939C12.9705 28.4086 15.1294 29.1086 16.0306 29.463L16.1945 29.5276L16.0306 29.5923C15.7989 29.6837 13.6674 30.3012 11.736 30.8364L10.0969 31.2905L8.8732 31.2963L7.6496 31.3021L7.36557 31.5075C6.93507 31.8189 6.68939 32.3685 6.68828 33.0231C6.68762 33.4103 6.72014 33.5928 6.82642 33.7993C7.36157 34.8384 7.49821 35.1629 7.59787 35.6316C7.72389 36.2239 7.84853 36.4215 8.18856 36.5677C8.86749 36.8597 9.68792 36.4915 10.2306 35.6511C10.8435 34.7021 11.8086 33.873 12.9751 33.2932C13.4384 33.0629 16.7997 31.7109 18.768 30.9631L19.44 30.7078L20.1121 30.9631C22.0803 31.7109 25.4416 33.0629 25.9049 33.2932C27.0714 33.873 28.0209 34.6888 28.642 35.6451C28.9758 36.1592 29.2499 36.3915 29.7257 36.5637C30.4405 36.8225 31.1084 36.5356 31.2121 35.9252C31.2995 35.4103 31.5257 34.7862 31.8078 34.2814C32.2928 33.4136 32.3379 32.8235 31.9763 32.0806C31.8586 31.8389 31.6991 31.6411 31.5135 31.5069L31.2303 31.3021L30.0395 31.3007L28.8487 31.2991L27.5374 30.9417C25.7476 30.4537 23.267 29.742 22.9478 29.6248C22.6331 29.5093 22.4784 29.5851 24.3902 28.9185C26.5637 28.1608 27.6039 28.0057 29.4397 28.1661C30.3693 28.2473 30.4892 28.2449 30.816 28.1389C31.306 27.9799 31.7006 27.6577 31.8924 27.26C32.0337 26.9669 32.0431 26.8998 31.9776 26.6481C31.9373 26.4926 31.7868 26.1551 31.6433 25.898C31.1907 25.0872 31.2015 24.897 31.733 24.3233C31.9274 24.1136 32.1176 23.8573 32.1559 23.7539C32.4975 22.829 31.4818 21.8955 30.1272 21.8895C29.2006 21.8855 28.583 22.3381 27.7139 23.6582C27.4514 24.0569 27.0698 24.5685 26.8659 24.7952C26.1633 25.5764 25.948 25.6869 21.6869 27.4529L19.4426 28.3831L17.3596 27.5224C14.2695 26.2457 13.1634 25.7517 12.7533 25.465C12.259 25.1194 11.742 24.5323 11.1683 23.6647C10.2852 22.3293 9.77184 21.9459 8.81832 21.9097C8.47279 21.8966 8.158 21.9232 7.98996 21.9798Z" fill="#60C5F0"/>
</g>
</svg>
