<svg width="15" height="14" viewBox="0 0 15 14" fill="none" xmlns="http://www.w3.org/2000/svg">
<g clip-path="url(#clip0_4340_11191)">
<path d="M11.6669 5.06055C11.324 5.06152 10.9898 5.1685 10.7102 5.36684C10.4305 5.56519 10.2191 5.84517 10.1048 6.16842H2.80393C2.65702 6.16842 2.51613 6.22678 2.41224 6.33066C2.30836 6.43455 2.25 6.57544 2.25 6.72235C2.25 6.86927 2.30836 7.01016 2.41224 7.11404C2.51613 7.21793 2.65702 7.27629 2.80393 7.27629H10.1048C10.2064 7.56371 10.3851 7.81764 10.6214 8.01029C10.8577 8.20294 11.1424 8.32688 11.4444 8.36855C11.7464 8.41022 12.054 8.36801 12.3336 8.24655C12.6133 8.12508 12.8541 7.92904 13.0297 7.67988C13.2054 7.43072 13.3091 7.13803 13.3296 6.83386C13.35 6.52969 13.2864 6.22575 13.1457 5.95531C13.005 5.68487 12.7926 5.45834 12.5318 5.30053C12.2709 5.14272 11.9717 5.0597 11.6669 5.06055ZM11.6669 7.27629C11.5573 7.27629 11.4502 7.2438 11.3591 7.18293C11.268 7.12207 11.197 7.03555 11.1551 6.93433C11.1132 6.83312 11.1022 6.72174 11.1236 6.61429C11.145 6.50683 11.1977 6.40813 11.2752 6.33066C11.3526 6.25319 11.4513 6.20044 11.5588 6.17906C11.6663 6.15769 11.7776 6.16866 11.8788 6.21059C11.9801 6.25251 12.0666 6.32351 12.1274 6.4146C12.1883 6.5057 12.2208 6.6128 12.2208 6.72235C12.2208 6.86927 12.1624 7.01016 12.0586 7.11404C11.9547 7.21793 11.8138 7.27629 11.6669 7.27629Z" fill="#CB0011"/>
<path d="M2.80393 3.9527H3.45757C3.57401 4.27351 3.78641 4.5507 4.06589 4.74658C4.34536 4.94246 4.67838 5.04754 5.01967 5.04754C5.36096 5.04754 5.69397 4.94246 5.97345 4.74658C6.25293 4.5507 6.46532 4.27351 6.58176 3.9527H12.7747C12.9216 3.9527 13.0625 3.89434 13.1664 3.79046C13.2703 3.68658 13.3287 3.54568 13.3287 3.39877C13.3287 3.25186 13.2703 3.11096 13.1664 3.00708C13.0625 2.9032 12.9216 2.84484 12.7747 2.84484H6.58176C6.46532 2.52402 6.25293 2.24684 5.97345 2.05096C5.69397 1.85508 5.36096 1.75 5.01967 1.75C4.67838 1.75 4.34536 1.85508 4.06589 2.05096C3.78641 2.24684 3.57401 2.52402 3.45757 2.84484H2.80393C2.65702 2.84484 2.51613 2.9032 2.41224 3.00708C2.30836 3.11096 2.25 3.25186 2.25 3.39877C2.25 3.54568 2.30836 3.68658 2.41224 3.79046C2.51613 3.89434 2.65702 3.9527 2.80393 3.9527ZM5.01967 2.84484C5.12922 2.84484 5.23632 2.87732 5.32742 2.93819C5.41851 2.99906 5.48951 3.08557 5.53143 3.18679C5.57336 3.28801 5.58433 3.39938 5.56296 3.50684C5.54158 3.61429 5.48883 3.71299 5.41136 3.79046C5.33389 3.86793 5.23519 3.92069 5.12773 3.94206C5.02028 3.96343 4.9089 3.95246 4.80769 3.91054C4.70647 3.86861 4.61995 3.79761 4.55909 3.70652C4.49822 3.61542 4.46573 3.50833 4.46573 3.39877C4.46573 3.25186 4.52409 3.11096 4.62798 3.00708C4.73186 2.9032 4.87275 2.84484 5.01967 2.84484Z" fill="#CB0011"/>
<path d="M12.7747 9.49132H8.79749C8.68105 9.17051 8.46866 8.89333 8.18918 8.69745C7.9097 8.50157 7.57669 8.39648 7.2354 8.39648C6.89411 8.39648 6.5611 8.50157 6.28162 8.69745C6.00214 8.89333 5.78975 9.17051 5.67331 9.49132H2.80393C2.65702 9.49132 2.51613 9.54968 2.41224 9.65356C2.30836 9.75745 2.25 9.89834 2.25 10.0453C2.25 10.1922 2.30836 10.3331 2.41224 10.4369C2.51613 10.5408 2.65702 10.5992 2.80393 10.5992H5.67331C5.78975 10.92 6.00214 11.1972 6.28162 11.3931C6.5611 11.5889 6.89411 11.694 7.2354 11.694C7.57669 11.694 7.9097 11.5889 8.18918 11.3931C8.46866 11.1972 8.68105 10.92 8.79749 10.5992H12.7747C12.9216 10.5992 13.0625 10.5408 13.1664 10.4369C13.2703 10.3331 13.3287 10.1922 13.3287 10.0453C13.3287 9.89834 13.2703 9.75745 13.1664 9.65356C13.0625 9.54968 12.9216 9.49132 12.7747 9.49132ZM7.2354 10.5992C7.12584 10.5992 7.01874 10.5667 6.92765 10.5058C6.83656 10.445 6.76556 10.3585 6.72363 10.2572C6.68171 10.156 6.67074 10.0446 6.69211 9.93719C6.71348 9.82973 6.76624 9.73103 6.84371 9.65356C6.92118 9.57609 7.01988 9.52334 7.12733 9.50196C7.23479 9.48059 7.34616 9.49156 7.44738 9.53349C7.5486 9.57541 7.63511 9.64641 7.69598 9.73751C7.75685 9.8286 7.78933 9.9357 7.78933 10.0453C7.78933 10.1922 7.73097 10.3331 7.62709 10.4369C7.52321 10.5408 7.38231 10.5992 7.2354 10.5992Z" fill="#CB0011"/>
</g>
<defs>
<clipPath id="clip0_4340_11191">
<rect width="14" height="14" fill="white" transform="translate(0.5)"/>
</clipPath>
</defs>
</svg>
