<svg width="42" height="42" viewBox="0 0 42 42" fill="none" xmlns="http://www.w3.org/2000/svg">
<path fill-rule="evenodd" clip-rule="evenodd" d="M6.94336 21.179C6.94336 20.2204 7.72043 19.4434 8.679 19.4434H32.978C33.9366 19.4434 34.7136 20.2204 34.7136 21.179C34.7136 22.1376 33.9366 22.9146 32.978 22.9146H8.679C7.72043 22.9146 6.94336 22.1376 6.94336 21.179Z" fill="#2B2B2B"/>
<path fill-rule="evenodd" clip-rule="evenodd" d="M19.6002 7.80133C20.278 7.12352 21.3769 7.12352 22.0547 7.80133L34.2042 19.9508C34.882 20.6286 34.882 21.7276 34.2042 22.4054L22.0547 34.5548C21.3769 35.2326 20.278 35.2326 19.6002 34.5548C18.9223 33.877 18.9223 32.7781 19.6002 32.1003L30.5224 21.1781L19.6002 10.2559C18.9223 9.57808 18.9223 8.47913 19.6002 7.80133Z" fill="#2B2B2B"/>
</svg>
