<svg width="16" height="19" viewBox="0 0 16 19" fill="none" xmlns="http://www.w3.org/2000/svg">
<path d="M8.30129 0.818359C8.14731 0.818374 7.99963 0.87947 7.89064 0.988241C7.78166 1.09701 7.72028 1.24457 7.71996 1.39855C7.71996 1.39855 7.71357 4.23264 7.70747 7.07329C7.70439 8.49361 7.70068 9.9154 7.69839 10.9859C7.6961 12.0564 7.69498 12.7337 7.69498 12.79C7.69498 13.8453 6.73662 14.7077 5.64445 14.7077C4.56098 14.7077 3.6961 13.8417 3.6961 12.7582C3.6961 11.6748 4.56098 10.8099 5.64445 10.8099C5.68115 10.8099 5.75513 10.822 5.88174 10.8371C5.96341 10.8469 6.04622 10.8393 6.1247 10.8147C6.20319 10.7901 6.27557 10.7492 6.33706 10.6946C6.39854 10.6399 6.44774 10.5729 6.48141 10.4978C6.51507 10.4228 6.53242 10.3415 6.53233 10.2592V7.81698C6.53232 7.66909 6.47595 7.52677 6.3747 7.41898C6.27345 7.31119 6.13493 7.24604 5.98734 7.23678C5.89675 7.23109 5.78276 7.21975 5.64445 7.21975C2.59276 7.21975 0.105958 9.70656 0.105957 12.7582C0.105957 15.8099 2.59276 18.2967 5.64445 18.2967C8.69605 18.2967 11.1829 15.8099 11.1829 12.7582V7.49793C12.0285 8.17425 13.0824 8.60267 14.2462 8.60267C14.405 8.60267 14.556 8.59327 14.7004 8.57996C14.8448 8.56664 14.9789 8.49987 15.0766 8.39275C15.1743 8.28563 15.2284 8.14588 15.2284 8.00091V5.28617C15.2285 5.1392 15.1729 4.99765 15.0728 4.89001C14.9728 4.78236 14.8356 4.71661 14.6891 4.70598C12.861 4.57482 11.4037 3.15076 11.2136 1.33951C11.1987 1.19658 11.1314 1.06422 11.0247 0.967984C10.918 0.871746 10.7794 0.818442 10.6357 0.818359H8.30129ZM8.88148 1.98101H10.2076C10.6301 3.89863 12.1286 5.36107 14.0657 5.72784V7.39347C12.8223 7.33033 11.7302 6.71006 11.0876 5.73238C11.0188 5.62775 10.9181 5.5481 10.8005 5.50529C10.6828 5.46247 10.5545 5.45878 10.4346 5.49475C10.3147 5.53073 10.2096 5.60445 10.1349 5.70495C10.0603 5.80545 10.0201 5.92737 10.0203 6.05256V12.7582C10.0203 15.1815 8.06777 17.1341 5.64445 17.1341C3.22121 17.1341 1.26861 15.1815 1.26861 12.7582C1.26861 10.4326 3.08279 8.58672 5.36968 8.43804V9.70288C3.7922 9.84967 2.53345 11.144 2.53345 12.7582C2.53345 14.4698 3.9329 15.8704 5.64445 15.8704C7.34729 15.8704 8.85763 14.5298 8.85763 12.79C8.85763 12.8185 8.85871 12.0586 8.86104 10.9882C8.86331 9.91768 8.86706 8.49588 8.87012 7.07556C8.87559 4.52534 8.88041 2.47468 8.88148 1.98101Z" fill="#9A9A9A"/>
</svg>
