<svg width="20" height="19" viewBox="0 0 20 19" fill="none" xmlns="http://www.w3.org/2000/svg">
<path d="M1.93601 18.0324H0.601562C0.623379 17.996 0.637924 17.9596 0.663376 17.9304C1.52877 17.0014 2.39052 16.0725 3.25592 15.1435C4.52855 13.7737 5.80482 12.4075 7.07746 11.0377C7.34653 10.7499 7.6156 10.4585 7.88467 10.167C7.85922 10.1269 7.8374 10.0905 7.81195 10.0577C7.40107 9.50398 6.99019 8.95388 6.57931 8.40013C5.15032 6.47659 3.72134 4.55304 2.29235 2.62585C1.74693 1.89724 1.20152 1.16862 0.663376 0.436365C0.637924 0.403577 0.637924 0.352574 0.627015 0.3125C2.39052 0.3125 4.15403 0.3125 5.9139 0.3125C5.95754 0.356217 6.00481 0.396291 6.04117 0.447294C6.86293 1.54386 7.68832 2.64407 8.51008 3.74428C9.13185 4.57854 9.75726 5.41281 10.379 6.24707C10.5499 6.47294 10.7208 6.69881 10.899 6.93197C11.3281 6.47294 11.7426 6.0212 12.1607 5.5731C13.6515 3.96651 15.146 2.35991 16.6404 0.756955C16.7931 0.593017 16.9131 0.389005 17.1422 0.3125C17.604 0.3125 18.0657 0.3125 18.5275 0.3125C18.5057 0.345288 18.4875 0.385362 18.4584 0.414506C18.2185 0.676808 17.9748 0.939109 17.7312 1.20141C16.8986 2.09761 16.0659 2.99016 15.2369 3.88636C14.3678 4.82263 13.4988 5.7589 12.6334 6.69517C12.2844 7.07405 11.9317 7.45293 11.5789 7.83181C11.5971 7.86096 11.6153 7.88646 11.6299 7.90831C12.3971 8.93202 13.1643 9.95573 13.9315 10.9831C15.535 13.1252 17.1349 15.2673 18.7384 17.4058C18.8911 17.6098 19.0511 17.8066 19.2075 18.0069C19.1711 18.0142 19.1311 18.0324 19.0948 18.0324C17.3204 18.0324 15.5459 18.0324 13.7679 18.0324C13.6988 17.9559 13.6224 17.8867 13.5606 17.8029C13.1316 17.2273 12.7061 16.6517 12.2771 16.0725C11.139 14.5387 10.0009 13.005 8.85914 11.4749C8.76461 11.3437 8.66643 11.2162 8.56462 11.0778C8.31009 11.351 8.06647 11.6097 7.82286 11.872C6.8702 12.8993 5.91754 13.9303 4.96125 14.9577C4.1104 15.8757 3.25955 16.7938 2.4087 17.7118C2.2778 17.8612 2.1469 18.0069 1.93601 18.0324ZM2.89231 1.46007C2.98321 1.58758 3.05229 1.68594 3.12502 1.7843C4.5031 3.61677 5.88118 5.44924 7.25926 7.28171C7.90649 8.14512 8.55371 9.00853 9.20094 9.87193C10.8954 12.1306 12.5934 14.393 14.2878 16.6553C14.3678 16.7646 14.4624 16.8084 14.5969 16.8084C15.3278 16.8047 16.0586 16.8047 16.7858 16.8011C16.8222 16.8011 16.8586 16.7974 16.9131 16.7938C16.8767 16.7428 16.8549 16.7063 16.8258 16.6699C15.7605 15.2418 14.6987 13.8137 13.6333 12.3893C12.6152 11.0268 11.5935 9.66792 10.5754 8.30541C8.91005 6.07585 7.24472 3.84264 5.58665 1.60944C5.5103 1.50379 5.41939 1.46007 5.29213 1.46007C4.55764 1.46371 3.82315 1.46371 3.08865 1.46371C3.03048 1.46007 2.97594 1.46007 2.89231 1.46007Z" fill="white"/>
</svg>
