<svg width="19" height="18" viewBox="0 0 19 18" fill="none" xmlns="http://www.w3.org/2000/svg">
<path d="M1.96989 17.0885H0.716309C0.736803 17.0542 0.750466 17.02 0.774376 16.9926C1.58732 16.1199 2.39686 15.2473 3.2098 14.3746C4.40531 13.0878 5.60424 11.8044 6.79975 10.5176C7.05252 10.2473 7.30528 9.97349 7.55805 9.69971C7.53414 9.66206 7.51364 9.62784 7.48973 9.59704C7.10375 9.07685 6.71777 8.56008 6.33179 8.03989C4.98941 6.23291 3.64702 4.42594 2.30463 2.61554C1.79227 1.93108 1.27991 1.24662 0.774376 0.558741C0.750466 0.52794 0.750466 0.480028 0.740219 0.442383C2.39686 0.442383 4.05349 0.442383 5.70671 0.442383C5.7477 0.48345 5.79211 0.521096 5.82626 0.569008C6.59822 1.59912 7.3736 2.63266 8.14556 3.66619C8.72965 4.4499 9.31716 5.2336 9.90125 6.01731C10.0618 6.22949 10.2223 6.44168 10.3897 6.6607C10.7928 6.22949 11.1822 5.80513 11.575 5.38418C12.9754 3.87495 14.3793 2.36572 15.7832 0.859904C15.9266 0.7059 16.0393 0.514251 16.2545 0.442383C16.6883 0.442383 17.1221 0.442383 17.5559 0.442383C17.5354 0.473184 17.5184 0.510829 17.491 0.538207C17.2656 0.784613 17.0367 1.03102 16.8079 1.27742C16.0257 2.11931 15.2435 2.95777 14.4647 3.79966C13.6483 4.67919 12.832 5.55872 12.019 6.43825C11.6911 6.79417 11.3598 7.15009 11.0284 7.50601C11.0455 7.53339 11.0626 7.55735 11.0763 7.57788C11.797 8.53955 12.5177 9.50121 13.2384 10.4663C14.7448 12.4786 16.2477 14.4909 17.754 16.4998C17.8975 16.6915 18.0478 16.8763 18.1947 17.0645C18.1605 17.0713 18.123 17.0885 18.0888 17.0885C16.4219 17.0885 14.755 17.0885 13.0847 17.0885C13.0198 17.0166 12.9481 16.9516 12.89 16.8728C12.487 16.3321 12.0873 15.7914 11.6843 15.2473C10.6151 13.8065 9.54601 12.3657 8.47347 10.9283C8.38466 10.8051 8.29243 10.6853 8.19679 10.5553C7.95769 10.812 7.72883 11.0549 7.49998 11.3013C6.60505 12.2664 5.71013 13.2349 4.81179 14.2C4.0125 15.0625 3.21322 15.9249 2.41393 16.7873C2.29097 16.9276 2.168 17.0645 1.96989 17.0885ZM2.86823 1.52041C2.95362 1.64019 3.01852 1.73259 3.08684 1.82499C4.3814 3.54641 5.67597 5.26783 6.97054 6.98924C7.57854 7.80033 8.18654 8.61141 8.79455 9.4225C10.3863 11.5443 11.9814 13.6696 13.5732 15.7948C13.6483 15.8975 13.7371 15.9386 13.8635 15.9386C14.5501 15.9351 15.2366 15.9351 15.9198 15.9317C15.954 15.9317 15.9881 15.9283 16.0393 15.9249C16.0052 15.877 15.9847 15.8427 15.9574 15.8085C14.9566 14.467 13.9592 13.1254 12.9583 11.7873C12.0019 10.5074 11.0421 9.23085 10.0857 7.95091C8.52129 5.85646 6.95688 3.75859 5.3993 1.66072C5.32757 1.56148 5.24217 1.52041 5.12262 1.52041C4.43264 1.52383 3.74266 1.52383 3.05268 1.52383C2.99803 1.52041 2.94679 1.52041 2.86823 1.52041Z" fill="#9A9A9A"/>
</svg>
