<svg width="18" height="20" viewBox="0 0 18 20" fill="none" xmlns="http://www.w3.org/2000/svg">
<path d="M3.31465 0.648438C3.5412 1.20278 4.6291 3.59318 4.95635 4.47586V6.668H6.05081V4.47907L7.69251 0.648438H6.37894L5.50358 2.83737L4.62822 0.648438H3.31465ZM8.78698 2.29014C8.23646 2.29014 7.81781 2.4408 7.51081 2.80744C7.27386 3.07832 7.14635 3.51279 7.14635 4.08575L7.14528 4.87667C7.14528 5.44634 7.25783 5.84032 7.49478 6.10901C7.80233 6.47402 8.30049 6.668 8.78698 6.668C9.27347 6.668 9.7807 6.47404 10.0888 6.10794C10.3219 5.8398 10.4287 5.44634 10.4287 4.87667V4.08254C10.4287 3.50904 10.2963 3.07832 10.0631 2.80744C9.7556 2.4408 9.27347 2.29014 8.78698 2.29014ZM10.9759 2.29014V5.48482C10.9759 5.846 11.0297 6.09142 11.1063 6.24903C11.2322 6.50787 11.4842 6.64048 11.8459 6.65197C12.3445 6.66839 12.7188 6.34513 13.1648 5.91556V6.668H14.2593V2.29014H13.1648V5.23151C12.9159 5.52647 12.6293 5.78837 12.4038 5.78837C12.2545 5.78837 12.0977 5.71965 12.0704 5.57353V2.29014H10.9759ZM8.78698 3.17618C9.08905 3.17618 9.33421 3.42653 9.33421 3.73517V5.27106C9.33421 5.57915 9.08905 5.83005 8.78698 5.83005C8.48491 5.83005 8.23975 5.5797 8.23975 5.27106V3.73517C8.23975 3.42708 8.48491 3.17618 8.78698 3.17618ZM8.78163 8.3097C8.78163 8.3097 5.11 8.30987 2.6584 8.48499C2.31364 8.52329 1.56889 8.52881 0.901265 9.21285C0.375921 9.72725 0.206536 10.9091 0.206536 10.9091C0.206536 10.9091 0.03125 11.7466 0.03125 13.1311V14.4276C0.03125 15.8121 0.206536 16.6497 0.206536 16.6497C0.206536 16.6497 0.375921 17.8313 0.901265 18.3512C1.56889 19.0298 2.44408 19.0079 2.83261 19.0791C4.23353 19.2104 8.78698 19.2544 8.78698 19.2544C8.78698 19.2544 12.464 19.2488 14.9156 19.0737C15.2603 19.0354 16.0051 19.0299 16.6727 18.3459C17.198 17.8315 17.3674 16.6497 17.3674 16.6497C17.3674 16.6497 17.5427 15.8121 17.5427 14.4276V13.1311C17.5427 11.7466 17.3674 10.9091 17.3674 10.9091C17.3674 10.9091 17.198 9.72725 16.6727 9.21285C16.0051 8.52881 15.2603 8.52329 14.9156 8.48499C12.464 8.30987 8.79232 8.3097 8.79232 8.3097H8.78163ZM1.67295 10.4986H4.95635V11.5931H3.86188V17.0654H2.76742V11.5931H1.67295V10.4986ZM8.78698 10.4986H9.88144V12.896C10.2919 12.4144 10.5103 12.1349 11.0411 12.1403C11.457 12.1458 11.7914 12.3815 11.9282 12.8083C11.9994 13.0382 12.0704 13.4487 12.0704 13.9904V15.4953C12.0649 15.9769 12.0153 16.19 11.9496 16.4199C11.8128 16.8467 11.457 17.0654 11.0411 17.0654C10.6745 17.0654 10.2262 16.8082 9.88144 16.3814V17.0654H8.78698V10.4986ZM4.95635 12.1403H6.05081V15.9111C6.07817 16.0698 6.19284 16.1291 6.33512 16.1291C6.55401 16.1291 6.9045 15.8886 7.14528 15.5712V12.1403H8.23975V17.0654H7.14528V16.3162C6.71296 16.7868 6.19805 17.0654 5.79857 17.0654C5.44834 17.0654 5.20286 16.9127 5.08247 16.6336C5.01133 16.4585 4.95635 16.195 4.95635 15.801V12.1403ZM14.2753 12.1403C14.8171 12.1403 15.2495 12.3154 15.5504 12.6437C15.7748 12.8845 15.901 13.2569 15.901 13.7713V14.8765H13.7121V15.8619C13.7121 16.1137 13.9583 16.3215 14.2593 16.3215C14.5603 16.3215 14.8065 16.1137 14.8065 15.8619V15.4237H15.901C15.901 15.7028 15.868 15.9379 15.8625 16.0255C15.8242 16.217 15.7374 16.3928 15.606 16.546C15.3105 16.8962 14.8668 17.0654 14.3031 17.0654C13.734 17.0654 13.3068 16.901 12.9949 16.5727C12.7651 16.3374 12.6176 15.9765 12.6176 15.4676V13.7927C12.6176 13.2783 12.7489 12.8845 12.9842 12.6437C13.2961 12.3154 13.7226 12.1403 14.2753 12.1403ZM14.2593 12.9334C13.9583 12.9334 13.7121 13.1358 13.7121 13.393V14.1155H14.8065V13.393C14.8065 13.1358 14.5603 12.9334 14.2593 12.9334ZM10.5495 13.098C10.4646 13.098 10.3409 13.1406 10.2171 13.2049C10.1551 13.237 10.0929 13.2744 10.0354 13.315C9.97781 13.3555 9.92522 13.3994 9.88144 13.4432V15.8342C9.92522 15.8779 9.97781 15.9185 10.0354 15.9539C10.208 16.0601 10.4222 16.1238 10.5495 16.1238C10.6603 16.1238 10.7471 16.0968 10.8135 16.0319C10.8356 16.0102 10.8559 15.9841 10.8733 15.9539C10.9082 15.8933 10.9333 15.8148 10.9503 15.7155C10.9672 15.6162 10.9759 15.4958 10.9759 15.3521V13.8536C10.9759 13.71 10.9672 13.5901 10.9503 13.4924C10.9164 13.2969 10.8485 13.1872 10.7408 13.1354C10.6869 13.1095 10.6233 13.098 10.5495 13.098Z" fill="white"/>
</svg>
