<svg width="18" height="19" viewBox="0 0 18 19" fill="none" xmlns="http://www.w3.org/2000/svg">
<path d="M3.65864 0.818359C3.87146 1.33911 4.89343 3.58464 5.20085 4.41384V6.47313H6.22899V4.41685L7.7712 0.818359H6.53723L5.71492 2.87464L4.89261 0.818359H3.65864ZM8.79934 2.36057C8.28218 2.36057 7.8889 2.5021 7.60051 2.84652C7.37792 3.10099 7.25813 3.50913 7.25813 4.04736L7.25713 4.79035C7.25713 5.3255 7.36286 5.6956 7.58545 5.94801C7.87436 6.2909 8.34233 6.47313 8.79934 6.47313C9.25634 6.47313 9.73284 6.29092 10.0223 5.94701C10.2413 5.69511 10.3415 5.3255 10.3415 4.79035V4.04435C10.3415 3.5056 10.2172 3.10099 9.99816 2.84652C9.70926 2.5021 9.25634 2.36057 8.79934 2.36057ZM10.8556 2.36057V5.36165C10.8556 5.70094 10.9061 5.93149 10.9781 6.07954C11.0963 6.3227 11.3331 6.44727 11.6729 6.45807C12.1412 6.47349 12.4929 6.16983 12.9119 5.76628V6.47313H13.94V2.36057H12.9119V5.12369C12.678 5.40078 12.4088 5.6468 12.197 5.6468C12.0567 5.6468 11.9095 5.58224 11.8838 5.44499V2.36057H10.8556ZM8.79934 3.19292C9.0831 3.19292 9.31341 3.4281 9.31341 3.71803V5.16084C9.31341 5.45026 9.0831 5.68596 8.79934 5.68596C8.51557 5.68596 8.28527 5.45078 8.28527 5.16084V3.71803C8.28527 3.42861 8.51557 3.19292 8.79934 3.19292ZM8.79432 8.01534C8.79432 8.01534 5.34519 8.0155 3.04216 8.18C2.71829 8.21598 2.01867 8.22117 1.39151 8.86375C0.898002 9.34698 0.738882 10.4572 0.738882 10.4572C0.738882 10.4572 0.574219 11.244 0.574219 12.5446V13.7625C0.574219 15.0631 0.738882 15.8499 0.738882 15.8499C0.738882 15.8499 0.898002 16.96 1.39151 17.4483C2.01867 18.0858 2.84082 18.0652 3.20581 18.1321C4.52183 18.2554 8.79934 18.2967 8.79934 18.2967C8.79934 18.2967 12.2535 18.2915 14.5565 18.127C14.8804 18.0911 15.58 18.0859 16.2072 17.4433C16.7007 16.9601 16.8598 15.8499 16.8598 15.8499C16.8598 15.8499 17.0245 15.0631 17.0245 13.7625V12.5446C17.0245 11.244 16.8598 10.4572 16.8598 10.4572C16.8598 10.4572 16.7007 9.34698 16.2072 8.86375C15.58 8.22117 14.8804 8.21598 14.5565 8.18C12.2535 8.0155 8.80436 8.01534 8.80436 8.01534H8.79432ZM2.11643 10.0716H5.20085V11.0998H4.17271V16.2405H3.14457V11.0998H2.11643V10.0716ZM8.79934 10.0716H9.82748V12.3237C10.213 11.8713 10.4182 11.6087 10.9169 11.6138C11.3076 11.619 11.6217 11.8404 11.7502 12.2414C11.817 12.4573 11.8838 12.8429 11.8838 13.3518V14.7655C11.8786 15.2179 11.832 15.4181 11.7703 15.634C11.6418 16.035 11.3076 16.2405 10.9169 16.2405C10.5724 16.2405 10.1513 15.9988 9.82748 15.5979V16.2405H8.79934V10.0716ZM5.20085 11.6138H6.22899V15.1561C6.25469 15.3052 6.3624 15.3609 6.49606 15.3609C6.70169 15.3609 7.03094 15.135 7.25713 14.8368V11.6138H8.28527V16.2405H7.25713V15.5366C6.85101 15.9787 6.3673 16.2405 5.99203 16.2405C5.66303 16.2405 5.43242 16.097 5.31932 15.8348C5.2525 15.6703 5.20085 15.4228 5.20085 15.0527V11.6138ZM13.9551 11.6138C14.464 11.6138 14.8702 11.7783 15.1529 12.0867C15.3637 12.3129 15.4822 12.6628 15.4822 13.146V14.1842H13.426V15.1099C13.426 15.3464 13.6573 15.5416 13.94 15.5416C14.2228 15.5416 14.4541 15.3464 14.4541 15.1099V14.6982H15.4822C15.4822 14.9604 15.4512 15.1813 15.4461 15.2635C15.4101 15.4434 15.3285 15.6085 15.2051 15.7525C14.9275 16.0815 14.5107 16.2405 13.9812 16.2405C13.4466 16.2405 13.0453 16.086 12.7523 15.7776C12.5363 15.5565 12.3978 15.2175 12.3978 14.7394V13.1661C12.3978 12.6828 12.5212 12.3129 12.7422 12.0867C13.0352 11.7783 13.4359 11.6138 13.9551 11.6138ZM13.94 12.3588C13.6573 12.3588 13.426 12.5489 13.426 12.7906V13.4693H14.4541V12.7906C14.4541 12.5489 14.2228 12.3588 13.94 12.3588ZM10.455 12.5134C10.3753 12.5134 10.2591 12.5534 10.1427 12.6139C10.0846 12.6441 10.0261 12.6792 9.97206 12.7173C9.918 12.7553 9.8686 12.7966 9.82748 12.8378V15.0838C9.8686 15.1249 9.918 15.163 9.97206 15.1962C10.1342 15.296 10.3355 15.3559 10.455 15.3559C10.5591 15.3559 10.6406 15.3305 10.703 15.2695C10.7238 15.2492 10.7428 15.2247 10.7592 15.1962C10.792 15.1394 10.8156 15.0656 10.8315 14.9723C10.8474 14.8791 10.8556 14.7659 10.8556 14.631V13.2233C10.8556 13.0884 10.8474 12.9757 10.8315 12.8839C10.7997 12.7003 10.7359 12.5973 10.6347 12.5486C10.5841 12.5243 10.5244 12.5134 10.455 12.5134Z" fill="#9A9A9A"/>
</svg>
