<svg width="17" height="20" viewBox="0 0 17 20" fill="none" xmlns="http://www.w3.org/2000/svg">
<path d="M9.06191 0.648438C8.898 0.648454 8.74079 0.713491 8.62478 0.829279C8.50876 0.945066 8.44342 1.10215 8.44308 1.26606C8.44308 1.26606 8.43628 4.28297 8.42979 7.30688C8.42651 8.81883 8.42256 10.3323 8.42012 11.4719C8.41768 12.6114 8.41649 13.3324 8.41649 13.3924C8.41649 14.5158 7.39631 15.4338 6.23367 15.4338C5.08031 15.4338 4.15963 14.5119 4.15963 13.3586C4.15963 12.2052 5.08031 11.2845 6.23367 11.2845C6.27275 11.2845 6.3515 11.2974 6.48628 11.3135C6.57321 11.324 6.66136 11.3158 6.74491 11.2897C6.82846 11.2635 6.90551 11.2199 6.97096 11.1618C7.03642 11.1036 7.08879 11.0322 7.12463 10.9524C7.16046 10.8725 7.17894 10.7859 7.17884 10.6983V8.09854C7.17882 7.94112 7.11882 7.78962 7.01104 7.67487C6.90326 7.56013 6.7558 7.49078 6.59869 7.48092C6.50226 7.47486 6.38091 7.46279 6.23367 7.46279C2.98512 7.46279 0.337891 10.11 0.337891 13.3586C0.337891 16.6071 2.98512 19.2544 6.23367 19.2544C9.48214 19.2544 12.1295 16.6071 12.1295 13.3586V7.75891C13.0296 8.47886 14.1515 8.93493 15.3904 8.93493C15.5594 8.93493 15.7201 8.92491 15.8738 8.91075C16.0275 8.89657 16.1703 8.8255 16.2743 8.71146C16.3783 8.59743 16.4359 8.44866 16.4359 8.29434V5.40447C16.436 5.24802 16.3768 5.09734 16.2703 4.98275C16.1638 4.86816 16.0178 4.79817 15.8618 4.78685C13.9158 4.64723 12.3645 3.13131 12.1621 1.20321C12.1462 1.05105 12.0746 0.910162 11.961 0.807715C11.8474 0.705268 11.6999 0.648526 11.5469 0.648438H9.06191ZM9.67953 1.88609H11.0912C11.541 3.92742 13.1361 5.48421 15.1982 5.87463V7.64772C13.8746 7.5805 12.7121 6.92022 12.0279 5.87946C11.9548 5.76808 11.8476 5.6833 11.7223 5.63772C11.5971 5.59215 11.4605 5.58821 11.3329 5.62651C11.2052 5.6648 11.0933 5.74328 11.0139 5.85027C10.9344 5.95725 10.8916 6.08703 10.8918 6.2203V13.3586C10.8918 15.9381 8.81333 18.0167 6.23367 18.0167C3.65411 18.0167 1.57555 15.9381 1.57555 13.3586C1.57555 10.8829 3.50677 8.91794 5.94118 8.75967V10.1061C4.26194 10.2624 2.92198 11.6402 2.92198 13.3586C2.92198 15.1805 4.41172 16.6715 6.23367 16.6715C8.04637 16.6715 9.65415 15.2444 9.65415 13.3924C9.65415 13.4227 9.6553 12.6138 9.65777 11.4743C9.66019 10.3348 9.66419 8.82124 9.66744 7.30929C9.67326 4.59456 9.6784 2.4116 9.67953 1.88609Z" fill="white"/>
</svg>
